<mxfile host="app.diagrams.net" agent="Mozilla/5.0 (Windows NT 10.0; Win64; x64) AppleWebKit/537.36 (KHTML, like Gecko) Chrome/136.0.0.0 Safari/537.36" version="27.0.6">
  <diagram name="第 1 页" id="jHWfHnfXvJWiePmlDUtP">
    <mxGraphModel dx="1722" dy="919" grid="1" gridSize="10" guides="1" tooltips="1" connect="1" arrows="1" fold="1" page="1" pageScale="1" pageWidth="827" pageHeight="1169" math="0" shadow="0">
      <root>
        <mxCell id="0" />
        <mxCell id="1" parent="0" />
        <mxCell id="iKnaXG9pOddWucdSrnOA-7" style="edgeStyle=orthogonalEdgeStyle;rounded=0;orthogonalLoop=1;jettySize=auto;html=1;entryX=0.5;entryY=0;entryDx=0;entryDy=0;strokeWidth=2;" edge="1" parent="1" source="iKnaXG9pOddWucdSrnOA-1" target="iKnaXG9pOddWucdSrnOA-2">
          <mxGeometry relative="1" as="geometry" />
        </mxCell>
        <mxCell id="iKnaXG9pOddWucdSrnOA-1" value="&lt;font style=&quot;font-size: 36px;&quot;&gt;血流声音周期性片段定位&lt;/font&gt;" style="rounded=1;whiteSpace=wrap;html=1;flipV=1;" vertex="1" parent="1">
          <mxGeometry x="210" y="190" width="410" height="60" as="geometry" />
        </mxCell>
        <mxCell id="iKnaXG9pOddWucdSrnOA-8" style="edgeStyle=orthogonalEdgeStyle;rounded=0;orthogonalLoop=1;jettySize=auto;html=1;entryX=0.5;entryY=0;entryDx=0;entryDy=0;strokeWidth=2;" edge="1" parent="1" source="iKnaXG9pOddWucdSrnOA-2" target="iKnaXG9pOddWucdSrnOA-3">
          <mxGeometry relative="1" as="geometry" />
        </mxCell>
        <mxCell id="iKnaXG9pOddWucdSrnOA-2" value="&lt;font style=&quot;font-size: 36px;&quot;&gt;对数梅尔谱特征提取&lt;/font&gt;" style="rounded=1;whiteSpace=wrap;html=1;flipV=1;" vertex="1" parent="1">
          <mxGeometry x="210" y="296" width="410" height="60" as="geometry" />
        </mxCell>
        <mxCell id="iKnaXG9pOddWucdSrnOA-9" style="edgeStyle=orthogonalEdgeStyle;rounded=0;orthogonalLoop=1;jettySize=auto;html=1;entryX=0.5;entryY=0;entryDx=0;entryDy=0;strokeWidth=2;" edge="1" parent="1" source="iKnaXG9pOddWucdSrnOA-3" target="iKnaXG9pOddWucdSrnOA-4">
          <mxGeometry relative="1" as="geometry" />
        </mxCell>
        <mxCell id="iKnaXG9pOddWucdSrnOA-3" value="&lt;font style=&quot;font-size: 36px;&quot;&gt;片段能量熵提取&lt;/font&gt;" style="rounded=1;whiteSpace=wrap;html=1;flipV=1;" vertex="1" parent="1">
          <mxGeometry x="210" y="402" width="410" height="60" as="geometry" />
        </mxCell>
        <mxCell id="iKnaXG9pOddWucdSrnOA-10" style="edgeStyle=orthogonalEdgeStyle;rounded=0;orthogonalLoop=1;jettySize=auto;html=1;entryX=0.5;entryY=0;entryDx=0;entryDy=0;strokeWidth=2;" edge="1" parent="1" source="iKnaXG9pOddWucdSrnOA-4" target="iKnaXG9pOddWucdSrnOA-5">
          <mxGeometry relative="1" as="geometry" />
        </mxCell>
        <mxCell id="iKnaXG9pOddWucdSrnOA-4" value="&lt;font style=&quot;font-size: 36px;&quot;&gt;基于片段能量熵的代理注意力计算&lt;/font&gt;" style="rounded=1;whiteSpace=wrap;html=1;flipV=1;" vertex="1" parent="1">
          <mxGeometry x="142.5" y="508" width="545" height="60" as="geometry" />
        </mxCell>
        <mxCell id="iKnaXG9pOddWucdSrnOA-11" style="edgeStyle=orthogonalEdgeStyle;rounded=0;orthogonalLoop=1;jettySize=auto;html=1;entryX=0.5;entryY=0;entryDx=0;entryDy=0;strokeWidth=2;" edge="1" parent="1" source="iKnaXG9pOddWucdSrnOA-5" target="iKnaXG9pOddWucdSrnOA-6">
          <mxGeometry relative="1" as="geometry" />
        </mxCell>
        <mxCell id="iKnaXG9pOddWucdSrnOA-5" value="&lt;span style=&quot;font-size: 36px;&quot;&gt;训练深度神经网络模型&lt;/span&gt;" style="rounded=1;whiteSpace=wrap;html=1;flipV=1;" vertex="1" parent="1">
          <mxGeometry x="210" y="614" width="410" height="60" as="geometry" />
        </mxCell>
        <mxCell id="iKnaXG9pOddWucdSrnOA-6" value="&lt;span style=&quot;font-size: 36px;&quot;&gt;诊断动静脉瘘狭窄&lt;/span&gt;" style="rounded=1;whiteSpace=wrap;html=1;flipV=1;" vertex="1" parent="1">
          <mxGeometry x="210" y="720" width="410" height="60" as="geometry" />
        </mxCell>
        <mxCell id="iKnaXG9pOddWucdSrnOA-193" value="" style="group" vertex="1" connectable="0" parent="1">
          <mxGeometry x="30" y="1169" width="80" height="80" as="geometry" />
        </mxCell>
        <mxCell id="iKnaXG9pOddWucdSrnOA-137" value="" style="shape=table;startSize=0;container=1;collapsible=0;childLayout=tableLayout;fillColor=#ffe6cc;strokeColor=#d79b00;" vertex="1" parent="iKnaXG9pOddWucdSrnOA-193">
          <mxGeometry y="40" width="20" height="20" as="geometry" />
        </mxCell>
        <mxCell id="iKnaXG9pOddWucdSrnOA-138" value="" style="shape=tableRow;horizontal=0;startSize=0;swimlaneHead=0;swimlaneBody=0;strokeColor=inherit;top=0;left=0;bottom=0;right=0;collapsible=0;dropTarget=0;fillColor=none;points=[[0,0.5],[1,0.5]];portConstraint=eastwest;" vertex="1" parent="iKnaXG9pOddWucdSrnOA-137">
          <mxGeometry width="20" height="20" as="geometry" />
        </mxCell>
        <mxCell id="iKnaXG9pOddWucdSrnOA-139" value="" style="shape=partialRectangle;html=1;whiteSpace=wrap;connectable=0;strokeColor=inherit;overflow=hidden;fillColor=none;top=0;left=0;bottom=0;right=0;pointerEvents=1;" vertex="1" parent="iKnaXG9pOddWucdSrnOA-138">
          <mxGeometry width="20" height="20" as="geometry">
            <mxRectangle width="20" height="20" as="alternateBounds" />
          </mxGeometry>
        </mxCell>
        <mxCell id="iKnaXG9pOddWucdSrnOA-140" value="" style="shape=partialRectangle;html=1;whiteSpace=wrap;connectable=0;strokeColor=#d79b00;overflow=hidden;fillColor=#ffe6cc;top=0;left=0;bottom=0;right=0;pointerEvents=1;" vertex="1" parent="iKnaXG9pOddWucdSrnOA-193">
          <mxGeometry x="20" y="40" width="20" height="20" as="geometry">
            <mxRectangle width="40" height="40" as="alternateBounds" />
          </mxGeometry>
        </mxCell>
        <mxCell id="iKnaXG9pOddWucdSrnOA-141" value="" style="shape=table;startSize=0;container=1;collapsible=0;childLayout=tableLayout;fillColor=#ffe6cc;strokeColor=#d79b00;" vertex="1" parent="iKnaXG9pOddWucdSrnOA-193">
          <mxGeometry x="20" y="40" width="20" height="20" as="geometry" />
        </mxCell>
        <mxCell id="iKnaXG9pOddWucdSrnOA-142" value="" style="shape=tableRow;horizontal=0;startSize=0;swimlaneHead=0;swimlaneBody=0;strokeColor=inherit;top=0;left=0;bottom=0;right=0;collapsible=0;dropTarget=0;fillColor=none;points=[[0,0.5],[1,0.5]];portConstraint=eastwest;" vertex="1" parent="iKnaXG9pOddWucdSrnOA-141">
          <mxGeometry width="20" height="20" as="geometry" />
        </mxCell>
        <mxCell id="iKnaXG9pOddWucdSrnOA-143" value="" style="shape=partialRectangle;html=1;whiteSpace=wrap;connectable=0;strokeColor=inherit;overflow=hidden;fillColor=none;top=0;left=0;bottom=0;right=0;pointerEvents=1;" vertex="1" parent="iKnaXG9pOddWucdSrnOA-142">
          <mxGeometry width="20" height="20" as="geometry">
            <mxRectangle width="20" height="20" as="alternateBounds" />
          </mxGeometry>
        </mxCell>
        <mxCell id="iKnaXG9pOddWucdSrnOA-144" value="" style="shape=table;startSize=0;container=1;collapsible=0;childLayout=tableLayout;fillColor=#ffe6cc;strokeColor=#d79b00;" vertex="1" parent="iKnaXG9pOddWucdSrnOA-193">
          <mxGeometry y="60" width="20" height="20" as="geometry" />
        </mxCell>
        <mxCell id="iKnaXG9pOddWucdSrnOA-145" value="" style="shape=tableRow;horizontal=0;startSize=0;swimlaneHead=0;swimlaneBody=0;strokeColor=inherit;top=0;left=0;bottom=0;right=0;collapsible=0;dropTarget=0;fillColor=none;points=[[0,0.5],[1,0.5]];portConstraint=eastwest;" vertex="1" parent="iKnaXG9pOddWucdSrnOA-144">
          <mxGeometry width="20" height="20" as="geometry" />
        </mxCell>
        <mxCell id="iKnaXG9pOddWucdSrnOA-146" value="" style="shape=partialRectangle;html=1;whiteSpace=wrap;connectable=0;strokeColor=inherit;overflow=hidden;fillColor=none;top=0;left=0;bottom=0;right=0;pointerEvents=1;" vertex="1" parent="iKnaXG9pOddWucdSrnOA-145">
          <mxGeometry width="20" height="20" as="geometry">
            <mxRectangle width="20" height="20" as="alternateBounds" />
          </mxGeometry>
        </mxCell>
        <mxCell id="iKnaXG9pOddWucdSrnOA-147" value="" style="shape=partialRectangle;html=1;whiteSpace=wrap;connectable=0;strokeColor=#d79b00;overflow=hidden;fillColor=#ffe6cc;top=0;left=0;bottom=0;right=0;pointerEvents=1;" vertex="1" parent="iKnaXG9pOddWucdSrnOA-193">
          <mxGeometry x="20" y="60" width="20" height="20" as="geometry">
            <mxRectangle width="40" height="40" as="alternateBounds" />
          </mxGeometry>
        </mxCell>
        <mxCell id="iKnaXG9pOddWucdSrnOA-148" value="" style="shape=table;startSize=0;container=1;collapsible=0;childLayout=tableLayout;fillColor=#ffe6cc;strokeColor=#d79b00;" vertex="1" parent="iKnaXG9pOddWucdSrnOA-193">
          <mxGeometry x="20" y="60" width="20" height="20" as="geometry" />
        </mxCell>
        <mxCell id="iKnaXG9pOddWucdSrnOA-149" value="" style="shape=tableRow;horizontal=0;startSize=0;swimlaneHead=0;swimlaneBody=0;strokeColor=inherit;top=0;left=0;bottom=0;right=0;collapsible=0;dropTarget=0;fillColor=none;points=[[0,0.5],[1,0.5]];portConstraint=eastwest;" vertex="1" parent="iKnaXG9pOddWucdSrnOA-148">
          <mxGeometry width="20" height="20" as="geometry" />
        </mxCell>
        <mxCell id="iKnaXG9pOddWucdSrnOA-150" value="" style="shape=partialRectangle;html=1;whiteSpace=wrap;connectable=0;strokeColor=inherit;overflow=hidden;fillColor=none;top=0;left=0;bottom=0;right=0;pointerEvents=1;" vertex="1" parent="iKnaXG9pOddWucdSrnOA-149">
          <mxGeometry width="20" height="20" as="geometry">
            <mxRectangle width="20" height="20" as="alternateBounds" />
          </mxGeometry>
        </mxCell>
        <mxCell id="iKnaXG9pOddWucdSrnOA-151" value="" style="shape=table;startSize=0;container=1;collapsible=0;childLayout=tableLayout;fillColor=#ffe6cc;strokeColor=#d79b00;" vertex="1" parent="iKnaXG9pOddWucdSrnOA-193">
          <mxGeometry width="20" height="20" as="geometry" />
        </mxCell>
        <mxCell id="iKnaXG9pOddWucdSrnOA-152" value="" style="shape=tableRow;horizontal=0;startSize=0;swimlaneHead=0;swimlaneBody=0;strokeColor=inherit;top=0;left=0;bottom=0;right=0;collapsible=0;dropTarget=0;fillColor=none;points=[[0,0.5],[1,0.5]];portConstraint=eastwest;" vertex="1" parent="iKnaXG9pOddWucdSrnOA-151">
          <mxGeometry width="20" height="20" as="geometry" />
        </mxCell>
        <mxCell id="iKnaXG9pOddWucdSrnOA-153" value="" style="shape=partialRectangle;html=1;whiteSpace=wrap;connectable=0;strokeColor=inherit;overflow=hidden;fillColor=none;top=0;left=0;bottom=0;right=0;pointerEvents=1;" vertex="1" parent="iKnaXG9pOddWucdSrnOA-152">
          <mxGeometry width="20" height="20" as="geometry">
            <mxRectangle width="20" height="20" as="alternateBounds" />
          </mxGeometry>
        </mxCell>
        <mxCell id="iKnaXG9pOddWucdSrnOA-154" value="" style="shape=partialRectangle;html=1;whiteSpace=wrap;connectable=0;strokeColor=#d79b00;overflow=hidden;fillColor=#ffe6cc;top=0;left=0;bottom=0;right=0;pointerEvents=1;" vertex="1" parent="iKnaXG9pOddWucdSrnOA-193">
          <mxGeometry x="20" width="20" height="20" as="geometry">
            <mxRectangle width="40" height="40" as="alternateBounds" />
          </mxGeometry>
        </mxCell>
        <mxCell id="iKnaXG9pOddWucdSrnOA-155" value="" style="shape=table;startSize=0;container=1;collapsible=0;childLayout=tableLayout;fillColor=#ffe6cc;strokeColor=#d79b00;" vertex="1" parent="iKnaXG9pOddWucdSrnOA-193">
          <mxGeometry x="20" width="20" height="20" as="geometry" />
        </mxCell>
        <mxCell id="iKnaXG9pOddWucdSrnOA-156" value="" style="shape=tableRow;horizontal=0;startSize=0;swimlaneHead=0;swimlaneBody=0;strokeColor=inherit;top=0;left=0;bottom=0;right=0;collapsible=0;dropTarget=0;fillColor=none;points=[[0,0.5],[1,0.5]];portConstraint=eastwest;" vertex="1" parent="iKnaXG9pOddWucdSrnOA-155">
          <mxGeometry width="20" height="20" as="geometry" />
        </mxCell>
        <mxCell id="iKnaXG9pOddWucdSrnOA-157" value="" style="shape=partialRectangle;html=1;whiteSpace=wrap;connectable=0;strokeColor=inherit;overflow=hidden;fillColor=none;top=0;left=0;bottom=0;right=0;pointerEvents=1;" vertex="1" parent="iKnaXG9pOddWucdSrnOA-156">
          <mxGeometry width="20" height="20" as="geometry">
            <mxRectangle width="20" height="20" as="alternateBounds" />
          </mxGeometry>
        </mxCell>
        <mxCell id="iKnaXG9pOddWucdSrnOA-158" value="" style="shape=table;startSize=0;container=1;collapsible=0;childLayout=tableLayout;fillColor=#ffe6cc;strokeColor=#d79b00;" vertex="1" parent="iKnaXG9pOddWucdSrnOA-193">
          <mxGeometry y="20" width="20" height="20" as="geometry" />
        </mxCell>
        <mxCell id="iKnaXG9pOddWucdSrnOA-159" value="" style="shape=tableRow;horizontal=0;startSize=0;swimlaneHead=0;swimlaneBody=0;strokeColor=inherit;top=0;left=0;bottom=0;right=0;collapsible=0;dropTarget=0;fillColor=none;points=[[0,0.5],[1,0.5]];portConstraint=eastwest;" vertex="1" parent="iKnaXG9pOddWucdSrnOA-158">
          <mxGeometry width="20" height="20" as="geometry" />
        </mxCell>
        <mxCell id="iKnaXG9pOddWucdSrnOA-160" value="" style="shape=partialRectangle;html=1;whiteSpace=wrap;connectable=0;strokeColor=inherit;overflow=hidden;fillColor=none;top=0;left=0;bottom=0;right=0;pointerEvents=1;" vertex="1" parent="iKnaXG9pOddWucdSrnOA-159">
          <mxGeometry width="20" height="20" as="geometry">
            <mxRectangle width="20" height="20" as="alternateBounds" />
          </mxGeometry>
        </mxCell>
        <mxCell id="iKnaXG9pOddWucdSrnOA-161" value="" style="shape=partialRectangle;html=1;whiteSpace=wrap;connectable=0;strokeColor=#d79b00;overflow=hidden;fillColor=#ffe6cc;top=0;left=0;bottom=0;right=0;pointerEvents=1;" vertex="1" parent="iKnaXG9pOddWucdSrnOA-193">
          <mxGeometry x="20" y="20" width="20" height="20" as="geometry">
            <mxRectangle width="40" height="40" as="alternateBounds" />
          </mxGeometry>
        </mxCell>
        <mxCell id="iKnaXG9pOddWucdSrnOA-162" value="" style="shape=table;startSize=0;container=1;collapsible=0;childLayout=tableLayout;fillColor=#ffe6cc;strokeColor=#d79b00;" vertex="1" parent="iKnaXG9pOddWucdSrnOA-193">
          <mxGeometry x="20" y="20" width="20" height="20" as="geometry" />
        </mxCell>
        <mxCell id="iKnaXG9pOddWucdSrnOA-163" value="" style="shape=tableRow;horizontal=0;startSize=0;swimlaneHead=0;swimlaneBody=0;strokeColor=inherit;top=0;left=0;bottom=0;right=0;collapsible=0;dropTarget=0;fillColor=none;points=[[0,0.5],[1,0.5]];portConstraint=eastwest;" vertex="1" parent="iKnaXG9pOddWucdSrnOA-162">
          <mxGeometry width="20" height="20" as="geometry" />
        </mxCell>
        <mxCell id="iKnaXG9pOddWucdSrnOA-164" value="" style="shape=partialRectangle;html=1;whiteSpace=wrap;connectable=0;strokeColor=inherit;overflow=hidden;fillColor=none;top=0;left=0;bottom=0;right=0;pointerEvents=1;" vertex="1" parent="iKnaXG9pOddWucdSrnOA-163">
          <mxGeometry width="20" height="20" as="geometry">
            <mxRectangle width="20" height="20" as="alternateBounds" />
          </mxGeometry>
        </mxCell>
        <mxCell id="iKnaXG9pOddWucdSrnOA-165" value="" style="shape=table;startSize=0;container=1;collapsible=0;childLayout=tableLayout;fillColor=#ffe6cc;strokeColor=#d79b00;" vertex="1" parent="iKnaXG9pOddWucdSrnOA-193">
          <mxGeometry x="40" y="40" width="20" height="20" as="geometry" />
        </mxCell>
        <mxCell id="iKnaXG9pOddWucdSrnOA-166" value="" style="shape=tableRow;horizontal=0;startSize=0;swimlaneHead=0;swimlaneBody=0;strokeColor=inherit;top=0;left=0;bottom=0;right=0;collapsible=0;dropTarget=0;fillColor=none;points=[[0,0.5],[1,0.5]];portConstraint=eastwest;" vertex="1" parent="iKnaXG9pOddWucdSrnOA-165">
          <mxGeometry width="20" height="20" as="geometry" />
        </mxCell>
        <mxCell id="iKnaXG9pOddWucdSrnOA-167" value="" style="shape=partialRectangle;html=1;whiteSpace=wrap;connectable=0;strokeColor=inherit;overflow=hidden;fillColor=none;top=0;left=0;bottom=0;right=0;pointerEvents=1;" vertex="1" parent="iKnaXG9pOddWucdSrnOA-166">
          <mxGeometry width="20" height="20" as="geometry">
            <mxRectangle width="20" height="20" as="alternateBounds" />
          </mxGeometry>
        </mxCell>
        <mxCell id="iKnaXG9pOddWucdSrnOA-168" value="" style="shape=partialRectangle;html=1;whiteSpace=wrap;connectable=0;strokeColor=#d79b00;overflow=hidden;fillColor=#ffe6cc;top=0;left=0;bottom=0;right=0;pointerEvents=1;" vertex="1" parent="iKnaXG9pOddWucdSrnOA-193">
          <mxGeometry x="60" y="40" width="20" height="20" as="geometry">
            <mxRectangle width="40" height="40" as="alternateBounds" />
          </mxGeometry>
        </mxCell>
        <mxCell id="iKnaXG9pOddWucdSrnOA-169" value="" style="shape=table;startSize=0;container=1;collapsible=0;childLayout=tableLayout;fillColor=#ffe6cc;strokeColor=#d79b00;" vertex="1" parent="iKnaXG9pOddWucdSrnOA-193">
          <mxGeometry x="60" y="40" width="20" height="20" as="geometry" />
        </mxCell>
        <mxCell id="iKnaXG9pOddWucdSrnOA-170" value="" style="shape=tableRow;horizontal=0;startSize=0;swimlaneHead=0;swimlaneBody=0;strokeColor=inherit;top=0;left=0;bottom=0;right=0;collapsible=0;dropTarget=0;fillColor=none;points=[[0,0.5],[1,0.5]];portConstraint=eastwest;" vertex="1" parent="iKnaXG9pOddWucdSrnOA-169">
          <mxGeometry width="20" height="20" as="geometry" />
        </mxCell>
        <mxCell id="iKnaXG9pOddWucdSrnOA-171" value="" style="shape=partialRectangle;html=1;whiteSpace=wrap;connectable=0;strokeColor=inherit;overflow=hidden;fillColor=none;top=0;left=0;bottom=0;right=0;pointerEvents=1;" vertex="1" parent="iKnaXG9pOddWucdSrnOA-170">
          <mxGeometry width="20" height="20" as="geometry">
            <mxRectangle width="20" height="20" as="alternateBounds" />
          </mxGeometry>
        </mxCell>
        <mxCell id="iKnaXG9pOddWucdSrnOA-172" value="" style="shape=table;startSize=0;container=1;collapsible=0;childLayout=tableLayout;fillColor=#ffe6cc;strokeColor=#d79b00;" vertex="1" parent="iKnaXG9pOddWucdSrnOA-193">
          <mxGeometry x="40" y="60" width="20" height="20" as="geometry" />
        </mxCell>
        <mxCell id="iKnaXG9pOddWucdSrnOA-173" value="" style="shape=tableRow;horizontal=0;startSize=0;swimlaneHead=0;swimlaneBody=0;strokeColor=inherit;top=0;left=0;bottom=0;right=0;collapsible=0;dropTarget=0;fillColor=none;points=[[0,0.5],[1,0.5]];portConstraint=eastwest;" vertex="1" parent="iKnaXG9pOddWucdSrnOA-172">
          <mxGeometry width="20" height="20" as="geometry" />
        </mxCell>
        <mxCell id="iKnaXG9pOddWucdSrnOA-174" value="" style="shape=partialRectangle;html=1;whiteSpace=wrap;connectable=0;strokeColor=inherit;overflow=hidden;fillColor=none;top=0;left=0;bottom=0;right=0;pointerEvents=1;" vertex="1" parent="iKnaXG9pOddWucdSrnOA-173">
          <mxGeometry width="20" height="20" as="geometry">
            <mxRectangle width="20" height="20" as="alternateBounds" />
          </mxGeometry>
        </mxCell>
        <mxCell id="iKnaXG9pOddWucdSrnOA-175" value="" style="shape=partialRectangle;html=1;whiteSpace=wrap;connectable=0;strokeColor=#d79b00;overflow=hidden;fillColor=#ffe6cc;top=0;left=0;bottom=0;right=0;pointerEvents=1;" vertex="1" parent="iKnaXG9pOddWucdSrnOA-193">
          <mxGeometry x="60" y="60" width="20" height="20" as="geometry">
            <mxRectangle width="40" height="40" as="alternateBounds" />
          </mxGeometry>
        </mxCell>
        <mxCell id="iKnaXG9pOddWucdSrnOA-176" value="" style="shape=table;startSize=0;container=1;collapsible=0;childLayout=tableLayout;fillColor=#ffe6cc;strokeColor=#d79b00;" vertex="1" parent="iKnaXG9pOddWucdSrnOA-193">
          <mxGeometry x="60" y="60" width="20" height="20" as="geometry" />
        </mxCell>
        <mxCell id="iKnaXG9pOddWucdSrnOA-177" value="" style="shape=tableRow;horizontal=0;startSize=0;swimlaneHead=0;swimlaneBody=0;strokeColor=inherit;top=0;left=0;bottom=0;right=0;collapsible=0;dropTarget=0;fillColor=none;points=[[0,0.5],[1,0.5]];portConstraint=eastwest;" vertex="1" parent="iKnaXG9pOddWucdSrnOA-176">
          <mxGeometry width="20" height="20" as="geometry" />
        </mxCell>
        <mxCell id="iKnaXG9pOddWucdSrnOA-178" value="" style="shape=partialRectangle;html=1;whiteSpace=wrap;connectable=0;strokeColor=inherit;overflow=hidden;fillColor=none;top=0;left=0;bottom=0;right=0;pointerEvents=1;" vertex="1" parent="iKnaXG9pOddWucdSrnOA-177">
          <mxGeometry width="20" height="20" as="geometry">
            <mxRectangle width="20" height="20" as="alternateBounds" />
          </mxGeometry>
        </mxCell>
        <mxCell id="iKnaXG9pOddWucdSrnOA-179" value="" style="shape=table;startSize=0;container=1;collapsible=0;childLayout=tableLayout;fillColor=#ffe6cc;strokeColor=#d79b00;" vertex="1" parent="iKnaXG9pOddWucdSrnOA-193">
          <mxGeometry x="40" width="20" height="20" as="geometry" />
        </mxCell>
        <mxCell id="iKnaXG9pOddWucdSrnOA-180" value="" style="shape=tableRow;horizontal=0;startSize=0;swimlaneHead=0;swimlaneBody=0;strokeColor=inherit;top=0;left=0;bottom=0;right=0;collapsible=0;dropTarget=0;fillColor=none;points=[[0,0.5],[1,0.5]];portConstraint=eastwest;" vertex="1" parent="iKnaXG9pOddWucdSrnOA-179">
          <mxGeometry width="20" height="20" as="geometry" />
        </mxCell>
        <mxCell id="iKnaXG9pOddWucdSrnOA-181" value="" style="shape=partialRectangle;html=1;whiteSpace=wrap;connectable=0;strokeColor=inherit;overflow=hidden;fillColor=none;top=0;left=0;bottom=0;right=0;pointerEvents=1;" vertex="1" parent="iKnaXG9pOddWucdSrnOA-180">
          <mxGeometry width="20" height="20" as="geometry">
            <mxRectangle width="20" height="20" as="alternateBounds" />
          </mxGeometry>
        </mxCell>
        <mxCell id="iKnaXG9pOddWucdSrnOA-182" value="" style="shape=partialRectangle;html=1;whiteSpace=wrap;connectable=0;strokeColor=#d79b00;overflow=hidden;fillColor=#ffe6cc;top=0;left=0;bottom=0;right=0;pointerEvents=1;" vertex="1" parent="iKnaXG9pOddWucdSrnOA-193">
          <mxGeometry x="60" width="20" height="20" as="geometry">
            <mxRectangle width="40" height="40" as="alternateBounds" />
          </mxGeometry>
        </mxCell>
        <mxCell id="iKnaXG9pOddWucdSrnOA-183" value="" style="shape=table;startSize=0;container=1;collapsible=0;childLayout=tableLayout;fillColor=#ffe6cc;strokeColor=#d79b00;" vertex="1" parent="iKnaXG9pOddWucdSrnOA-193">
          <mxGeometry x="60" width="20" height="20" as="geometry" />
        </mxCell>
        <mxCell id="iKnaXG9pOddWucdSrnOA-184" value="" style="shape=tableRow;horizontal=0;startSize=0;swimlaneHead=0;swimlaneBody=0;strokeColor=inherit;top=0;left=0;bottom=0;right=0;collapsible=0;dropTarget=0;fillColor=none;points=[[0,0.5],[1,0.5]];portConstraint=eastwest;" vertex="1" parent="iKnaXG9pOddWucdSrnOA-183">
          <mxGeometry width="20" height="20" as="geometry" />
        </mxCell>
        <mxCell id="iKnaXG9pOddWucdSrnOA-185" value="" style="shape=partialRectangle;html=1;whiteSpace=wrap;connectable=0;strokeColor=inherit;overflow=hidden;fillColor=none;top=0;left=0;bottom=0;right=0;pointerEvents=1;" vertex="1" parent="iKnaXG9pOddWucdSrnOA-184">
          <mxGeometry width="20" height="20" as="geometry">
            <mxRectangle width="20" height="20" as="alternateBounds" />
          </mxGeometry>
        </mxCell>
        <mxCell id="iKnaXG9pOddWucdSrnOA-186" value="" style="shape=table;startSize=0;container=1;collapsible=0;childLayout=tableLayout;fillColor=#ffe6cc;strokeColor=#d79b00;" vertex="1" parent="iKnaXG9pOddWucdSrnOA-193">
          <mxGeometry x="40" y="20" width="20" height="20" as="geometry" />
        </mxCell>
        <mxCell id="iKnaXG9pOddWucdSrnOA-187" value="" style="shape=tableRow;horizontal=0;startSize=0;swimlaneHead=0;swimlaneBody=0;strokeColor=inherit;top=0;left=0;bottom=0;right=0;collapsible=0;dropTarget=0;fillColor=none;points=[[0,0.5],[1,0.5]];portConstraint=eastwest;" vertex="1" parent="iKnaXG9pOddWucdSrnOA-186">
          <mxGeometry width="20" height="20" as="geometry" />
        </mxCell>
        <mxCell id="iKnaXG9pOddWucdSrnOA-188" value="" style="shape=partialRectangle;html=1;whiteSpace=wrap;connectable=0;strokeColor=inherit;overflow=hidden;fillColor=none;top=0;left=0;bottom=0;right=0;pointerEvents=1;" vertex="1" parent="iKnaXG9pOddWucdSrnOA-187">
          <mxGeometry width="20" height="20" as="geometry">
            <mxRectangle width="20" height="20" as="alternateBounds" />
          </mxGeometry>
        </mxCell>
        <mxCell id="iKnaXG9pOddWucdSrnOA-189" value="" style="shape=partialRectangle;html=1;whiteSpace=wrap;connectable=0;strokeColor=#d79b00;overflow=hidden;fillColor=#ffe6cc;top=0;left=0;bottom=0;right=0;pointerEvents=1;" vertex="1" parent="iKnaXG9pOddWucdSrnOA-193">
          <mxGeometry x="60" y="20" width="20" height="20" as="geometry">
            <mxRectangle width="40" height="40" as="alternateBounds" />
          </mxGeometry>
        </mxCell>
        <mxCell id="iKnaXG9pOddWucdSrnOA-190" value="" style="shape=table;startSize=0;container=1;collapsible=0;childLayout=tableLayout;fillColor=#ffe6cc;strokeColor=#d79b00;" vertex="1" parent="iKnaXG9pOddWucdSrnOA-193">
          <mxGeometry x="60" y="20" width="20" height="20" as="geometry" />
        </mxCell>
        <mxCell id="iKnaXG9pOddWucdSrnOA-191" value="" style="shape=tableRow;horizontal=0;startSize=0;swimlaneHead=0;swimlaneBody=0;strokeColor=inherit;top=0;left=0;bottom=0;right=0;collapsible=0;dropTarget=0;fillColor=none;points=[[0,0.5],[1,0.5]];portConstraint=eastwest;" vertex="1" parent="iKnaXG9pOddWucdSrnOA-190">
          <mxGeometry width="20" height="20" as="geometry" />
        </mxCell>
        <mxCell id="iKnaXG9pOddWucdSrnOA-192" value="" style="shape=partialRectangle;html=1;whiteSpace=wrap;connectable=0;strokeColor=inherit;overflow=hidden;fillColor=none;top=0;left=0;bottom=0;right=0;pointerEvents=1;" vertex="1" parent="iKnaXG9pOddWucdSrnOA-191">
          <mxGeometry width="20" height="20" as="geometry">
            <mxRectangle width="20" height="20" as="alternateBounds" />
          </mxGeometry>
        </mxCell>
        <mxCell id="iKnaXG9pOddWucdSrnOA-428" value="A" style="text;html=1;align=center;verticalAlign=middle;whiteSpace=wrap;rounded=0;" vertex="1" parent="iKnaXG9pOddWucdSrnOA-193">
          <mxGeometry y="15" width="60" height="30" as="geometry" />
        </mxCell>
        <mxCell id="iKnaXG9pOddWucdSrnOA-194" value="" style="group" vertex="1" connectable="0" parent="1">
          <mxGeometry x="170" y="1169" width="40" height="80" as="geometry" />
        </mxCell>
        <mxCell id="iKnaXG9pOddWucdSrnOA-81" value="" style="shape=table;startSize=0;container=1;collapsible=0;childLayout=tableLayout;fillColor=#dae8fc;strokeColor=#6c8ebf;" vertex="1" parent="iKnaXG9pOddWucdSrnOA-194">
          <mxGeometry y="40" width="20" height="20" as="geometry" />
        </mxCell>
        <mxCell id="iKnaXG9pOddWucdSrnOA-82" value="" style="shape=tableRow;horizontal=0;startSize=0;swimlaneHead=0;swimlaneBody=0;strokeColor=inherit;top=0;left=0;bottom=0;right=0;collapsible=0;dropTarget=0;fillColor=none;points=[[0,0.5],[1,0.5]];portConstraint=eastwest;" vertex="1" parent="iKnaXG9pOddWucdSrnOA-81">
          <mxGeometry width="20" height="20" as="geometry" />
        </mxCell>
        <mxCell id="iKnaXG9pOddWucdSrnOA-83" value="" style="shape=partialRectangle;html=1;whiteSpace=wrap;connectable=0;strokeColor=inherit;overflow=hidden;fillColor=none;top=0;left=0;bottom=0;right=0;pointerEvents=1;" vertex="1" parent="iKnaXG9pOddWucdSrnOA-82">
          <mxGeometry width="20" height="20" as="geometry">
            <mxRectangle width="20" height="20" as="alternateBounds" />
          </mxGeometry>
        </mxCell>
        <mxCell id="iKnaXG9pOddWucdSrnOA-84" value="" style="shape=partialRectangle;html=1;whiteSpace=wrap;connectable=0;strokeColor=inherit;overflow=hidden;fillColor=none;top=0;left=0;bottom=0;right=0;pointerEvents=1;" vertex="1" parent="iKnaXG9pOddWucdSrnOA-194">
          <mxGeometry x="20" y="40" width="20" height="20" as="geometry">
            <mxRectangle width="40" height="40" as="alternateBounds" />
          </mxGeometry>
        </mxCell>
        <mxCell id="iKnaXG9pOddWucdSrnOA-85" value="" style="shape=table;startSize=0;container=1;collapsible=0;childLayout=tableLayout;fillColor=#dae8fc;strokeColor=#6c8ebf;" vertex="1" parent="iKnaXG9pOddWucdSrnOA-194">
          <mxGeometry x="20" y="40" width="20" height="20" as="geometry" />
        </mxCell>
        <mxCell id="iKnaXG9pOddWucdSrnOA-86" value="" style="shape=tableRow;horizontal=0;startSize=0;swimlaneHead=0;swimlaneBody=0;strokeColor=inherit;top=0;left=0;bottom=0;right=0;collapsible=0;dropTarget=0;fillColor=none;points=[[0,0.5],[1,0.5]];portConstraint=eastwest;" vertex="1" parent="iKnaXG9pOddWucdSrnOA-85">
          <mxGeometry width="20" height="20" as="geometry" />
        </mxCell>
        <mxCell id="iKnaXG9pOddWucdSrnOA-87" value="" style="shape=partialRectangle;html=1;whiteSpace=wrap;connectable=0;strokeColor=inherit;overflow=hidden;fillColor=none;top=0;left=0;bottom=0;right=0;pointerEvents=1;" vertex="1" parent="iKnaXG9pOddWucdSrnOA-86">
          <mxGeometry width="20" height="20" as="geometry">
            <mxRectangle width="20" height="20" as="alternateBounds" />
          </mxGeometry>
        </mxCell>
        <mxCell id="iKnaXG9pOddWucdSrnOA-88" value="" style="shape=table;startSize=0;container=1;collapsible=0;childLayout=tableLayout;fillColor=#dae8fc;strokeColor=#6c8ebf;" vertex="1" parent="iKnaXG9pOddWucdSrnOA-194">
          <mxGeometry y="60" width="20" height="20" as="geometry" />
        </mxCell>
        <mxCell id="iKnaXG9pOddWucdSrnOA-89" value="" style="shape=tableRow;horizontal=0;startSize=0;swimlaneHead=0;swimlaneBody=0;strokeColor=inherit;top=0;left=0;bottom=0;right=0;collapsible=0;dropTarget=0;fillColor=none;points=[[0,0.5],[1,0.5]];portConstraint=eastwest;" vertex="1" parent="iKnaXG9pOddWucdSrnOA-88">
          <mxGeometry width="20" height="20" as="geometry" />
        </mxCell>
        <mxCell id="iKnaXG9pOddWucdSrnOA-90" value="" style="shape=partialRectangle;html=1;whiteSpace=wrap;connectable=0;strokeColor=inherit;overflow=hidden;fillColor=none;top=0;left=0;bottom=0;right=0;pointerEvents=1;" vertex="1" parent="iKnaXG9pOddWucdSrnOA-89">
          <mxGeometry width="20" height="20" as="geometry">
            <mxRectangle width="20" height="20" as="alternateBounds" />
          </mxGeometry>
        </mxCell>
        <mxCell id="iKnaXG9pOddWucdSrnOA-91" value="" style="shape=partialRectangle;html=1;whiteSpace=wrap;connectable=0;strokeColor=inherit;overflow=hidden;fillColor=none;top=0;left=0;bottom=0;right=0;pointerEvents=1;" vertex="1" parent="iKnaXG9pOddWucdSrnOA-194">
          <mxGeometry x="20" y="60" width="20" height="20" as="geometry">
            <mxRectangle width="40" height="40" as="alternateBounds" />
          </mxGeometry>
        </mxCell>
        <mxCell id="iKnaXG9pOddWucdSrnOA-92" value="" style="shape=table;startSize=0;container=1;collapsible=0;childLayout=tableLayout;fillColor=#dae8fc;strokeColor=#6c8ebf;" vertex="1" parent="iKnaXG9pOddWucdSrnOA-194">
          <mxGeometry x="20" y="60" width="20" height="20" as="geometry" />
        </mxCell>
        <mxCell id="iKnaXG9pOddWucdSrnOA-93" value="" style="shape=tableRow;horizontal=0;startSize=0;swimlaneHead=0;swimlaneBody=0;strokeColor=inherit;top=0;left=0;bottom=0;right=0;collapsible=0;dropTarget=0;fillColor=none;points=[[0,0.5],[1,0.5]];portConstraint=eastwest;" vertex="1" parent="iKnaXG9pOddWucdSrnOA-92">
          <mxGeometry width="20" height="20" as="geometry" />
        </mxCell>
        <mxCell id="iKnaXG9pOddWucdSrnOA-94" value="" style="shape=partialRectangle;html=1;whiteSpace=wrap;connectable=0;strokeColor=inherit;overflow=hidden;fillColor=none;top=0;left=0;bottom=0;right=0;pointerEvents=1;" vertex="1" parent="iKnaXG9pOddWucdSrnOA-93">
          <mxGeometry width="20" height="20" as="geometry">
            <mxRectangle width="20" height="20" as="alternateBounds" />
          </mxGeometry>
        </mxCell>
        <mxCell id="iKnaXG9pOddWucdSrnOA-95" value="" style="shape=table;startSize=0;container=1;collapsible=0;childLayout=tableLayout;fillColor=#dae8fc;strokeColor=#6c8ebf;" vertex="1" parent="iKnaXG9pOddWucdSrnOA-194">
          <mxGeometry width="20" height="20" as="geometry" />
        </mxCell>
        <mxCell id="iKnaXG9pOddWucdSrnOA-96" value="" style="shape=tableRow;horizontal=0;startSize=0;swimlaneHead=0;swimlaneBody=0;strokeColor=inherit;top=0;left=0;bottom=0;right=0;collapsible=0;dropTarget=0;fillColor=none;points=[[0,0.5],[1,0.5]];portConstraint=eastwest;" vertex="1" parent="iKnaXG9pOddWucdSrnOA-95">
          <mxGeometry width="20" height="20" as="geometry" />
        </mxCell>
        <mxCell id="iKnaXG9pOddWucdSrnOA-97" value="" style="shape=partialRectangle;html=1;whiteSpace=wrap;connectable=0;strokeColor=inherit;overflow=hidden;fillColor=none;top=0;left=0;bottom=0;right=0;pointerEvents=1;" vertex="1" parent="iKnaXG9pOddWucdSrnOA-96">
          <mxGeometry width="20" height="20" as="geometry">
            <mxRectangle width="20" height="20" as="alternateBounds" />
          </mxGeometry>
        </mxCell>
        <mxCell id="iKnaXG9pOddWucdSrnOA-98" value="" style="shape=partialRectangle;html=1;whiteSpace=wrap;connectable=0;strokeColor=inherit;overflow=hidden;fillColor=none;top=0;left=0;bottom=0;right=0;pointerEvents=1;" vertex="1" parent="iKnaXG9pOddWucdSrnOA-194">
          <mxGeometry x="20" width="20" height="20" as="geometry">
            <mxRectangle width="40" height="40" as="alternateBounds" />
          </mxGeometry>
        </mxCell>
        <mxCell id="iKnaXG9pOddWucdSrnOA-99" value="" style="shape=table;startSize=0;container=1;collapsible=0;childLayout=tableLayout;fillColor=#dae8fc;strokeColor=#6c8ebf;" vertex="1" parent="iKnaXG9pOddWucdSrnOA-194">
          <mxGeometry x="20" width="20" height="20" as="geometry" />
        </mxCell>
        <mxCell id="iKnaXG9pOddWucdSrnOA-100" value="" style="shape=tableRow;horizontal=0;startSize=0;swimlaneHead=0;swimlaneBody=0;strokeColor=inherit;top=0;left=0;bottom=0;right=0;collapsible=0;dropTarget=0;fillColor=none;points=[[0,0.5],[1,0.5]];portConstraint=eastwest;" vertex="1" parent="iKnaXG9pOddWucdSrnOA-99">
          <mxGeometry width="20" height="20" as="geometry" />
        </mxCell>
        <mxCell id="iKnaXG9pOddWucdSrnOA-101" value="" style="shape=partialRectangle;html=1;whiteSpace=wrap;connectable=0;strokeColor=inherit;overflow=hidden;fillColor=none;top=0;left=0;bottom=0;right=0;pointerEvents=1;" vertex="1" parent="iKnaXG9pOddWucdSrnOA-100">
          <mxGeometry width="20" height="20" as="geometry">
            <mxRectangle width="20" height="20" as="alternateBounds" />
          </mxGeometry>
        </mxCell>
        <mxCell id="iKnaXG9pOddWucdSrnOA-102" value="" style="shape=table;startSize=0;container=1;collapsible=0;childLayout=tableLayout;fillColor=#dae8fc;strokeColor=#6c8ebf;" vertex="1" parent="iKnaXG9pOddWucdSrnOA-194">
          <mxGeometry y="20" width="20" height="20" as="geometry" />
        </mxCell>
        <mxCell id="iKnaXG9pOddWucdSrnOA-103" value="" style="shape=tableRow;horizontal=0;startSize=0;swimlaneHead=0;swimlaneBody=0;strokeColor=inherit;top=0;left=0;bottom=0;right=0;collapsible=0;dropTarget=0;fillColor=none;points=[[0,0.5],[1,0.5]];portConstraint=eastwest;" vertex="1" parent="iKnaXG9pOddWucdSrnOA-102">
          <mxGeometry width="20" height="20" as="geometry" />
        </mxCell>
        <mxCell id="iKnaXG9pOddWucdSrnOA-104" value="B" style="shape=partialRectangle;html=1;whiteSpace=wrap;connectable=0;strokeColor=inherit;overflow=hidden;fillColor=none;top=0;left=0;bottom=0;right=0;pointerEvents=1;" vertex="1" parent="iKnaXG9pOddWucdSrnOA-103">
          <mxGeometry width="20" height="20" as="geometry">
            <mxRectangle width="20" height="20" as="alternateBounds" />
          </mxGeometry>
        </mxCell>
        <mxCell id="iKnaXG9pOddWucdSrnOA-105" value="" style="shape=partialRectangle;html=1;whiteSpace=wrap;connectable=0;strokeColor=inherit;overflow=hidden;fillColor=none;top=0;left=0;bottom=0;right=0;pointerEvents=1;" vertex="1" parent="iKnaXG9pOddWucdSrnOA-194">
          <mxGeometry x="20" y="20" width="20" height="20" as="geometry">
            <mxRectangle width="40" height="40" as="alternateBounds" />
          </mxGeometry>
        </mxCell>
        <mxCell id="iKnaXG9pOddWucdSrnOA-106" value="" style="shape=table;startSize=0;container=1;collapsible=0;childLayout=tableLayout;fillColor=#dae8fc;strokeColor=#6c8ebf;" vertex="1" parent="iKnaXG9pOddWucdSrnOA-194">
          <mxGeometry x="20" y="20" width="20" height="20" as="geometry" />
        </mxCell>
        <mxCell id="iKnaXG9pOddWucdSrnOA-107" value="" style="shape=tableRow;horizontal=0;startSize=0;swimlaneHead=0;swimlaneBody=0;strokeColor=inherit;top=0;left=0;bottom=0;right=0;collapsible=0;dropTarget=0;fillColor=none;points=[[0,0.5],[1,0.5]];portConstraint=eastwest;" vertex="1" parent="iKnaXG9pOddWucdSrnOA-106">
          <mxGeometry width="20" height="20" as="geometry" />
        </mxCell>
        <mxCell id="iKnaXG9pOddWucdSrnOA-108" value="" style="shape=partialRectangle;html=1;whiteSpace=wrap;connectable=0;strokeColor=inherit;overflow=hidden;fillColor=none;top=0;left=0;bottom=0;right=0;pointerEvents=1;" vertex="1" parent="iKnaXG9pOddWucdSrnOA-107">
          <mxGeometry width="20" height="20" as="geometry">
            <mxRectangle width="20" height="20" as="alternateBounds" />
          </mxGeometry>
        </mxCell>
        <mxCell id="iKnaXG9pOddWucdSrnOA-196" value="" style="group;fillColor=#fff2cc;strokeColor=#d6b656;" vertex="1" connectable="0" parent="1">
          <mxGeometry x="190" y="1060" width="80" height="80" as="geometry" />
        </mxCell>
        <mxCell id="iKnaXG9pOddWucdSrnOA-197" value="" style="shape=table;startSize=0;container=1;collapsible=0;childLayout=tableLayout;fillColor=#fff2cc;strokeColor=#d6b656;" vertex="1" parent="iKnaXG9pOddWucdSrnOA-196">
          <mxGeometry y="40" width="20" height="20" as="geometry" />
        </mxCell>
        <mxCell id="iKnaXG9pOddWucdSrnOA-198" value="" style="shape=tableRow;horizontal=0;startSize=0;swimlaneHead=0;swimlaneBody=0;strokeColor=#d6b656;top=0;left=0;bottom=0;right=0;collapsible=0;dropTarget=0;fillColor=#fff2cc;points=[[0,0.5],[1,0.5]];portConstraint=eastwest;" vertex="1" parent="iKnaXG9pOddWucdSrnOA-197">
          <mxGeometry width="20" height="20" as="geometry" />
        </mxCell>
        <mxCell id="iKnaXG9pOddWucdSrnOA-199" value="" style="shape=partialRectangle;html=1;whiteSpace=wrap;connectable=0;strokeColor=#d6b656;overflow=hidden;fillColor=#fff2cc;top=0;left=0;bottom=0;right=0;pointerEvents=1;" vertex="1" parent="iKnaXG9pOddWucdSrnOA-198">
          <mxGeometry width="20" height="20" as="geometry">
            <mxRectangle width="20" height="20" as="alternateBounds" />
          </mxGeometry>
        </mxCell>
        <mxCell id="iKnaXG9pOddWucdSrnOA-200" value="" style="shape=partialRectangle;html=1;whiteSpace=wrap;connectable=0;strokeColor=#d6b656;overflow=hidden;fillColor=#fff2cc;top=0;left=0;bottom=0;right=0;pointerEvents=1;" vertex="1" parent="iKnaXG9pOddWucdSrnOA-196">
          <mxGeometry x="20" y="40" width="20" height="20" as="geometry">
            <mxRectangle width="40" height="40" as="alternateBounds" />
          </mxGeometry>
        </mxCell>
        <mxCell id="iKnaXG9pOddWucdSrnOA-201" value="" style="shape=table;startSize=0;container=1;collapsible=0;childLayout=tableLayout;fillColor=#fff2cc;strokeColor=#d6b656;" vertex="1" parent="iKnaXG9pOddWucdSrnOA-196">
          <mxGeometry x="20" y="40" width="20" height="20" as="geometry" />
        </mxCell>
        <mxCell id="iKnaXG9pOddWucdSrnOA-202" value="" style="shape=tableRow;horizontal=0;startSize=0;swimlaneHead=0;swimlaneBody=0;strokeColor=#d6b656;top=0;left=0;bottom=0;right=0;collapsible=0;dropTarget=0;fillColor=#fff2cc;points=[[0,0.5],[1,0.5]];portConstraint=eastwest;" vertex="1" parent="iKnaXG9pOddWucdSrnOA-201">
          <mxGeometry width="20" height="20" as="geometry" />
        </mxCell>
        <mxCell id="iKnaXG9pOddWucdSrnOA-203" value="" style="shape=partialRectangle;html=1;whiteSpace=wrap;connectable=0;strokeColor=#d6b656;overflow=hidden;fillColor=#fff2cc;top=0;left=0;bottom=0;right=0;pointerEvents=1;" vertex="1" parent="iKnaXG9pOddWucdSrnOA-202">
          <mxGeometry width="20" height="20" as="geometry">
            <mxRectangle width="20" height="20" as="alternateBounds" />
          </mxGeometry>
        </mxCell>
        <mxCell id="iKnaXG9pOddWucdSrnOA-204" value="" style="shape=table;startSize=0;container=1;collapsible=0;childLayout=tableLayout;fillColor=#fff2cc;strokeColor=#d6b656;" vertex="1" parent="iKnaXG9pOddWucdSrnOA-196">
          <mxGeometry y="60" width="20" height="20" as="geometry" />
        </mxCell>
        <mxCell id="iKnaXG9pOddWucdSrnOA-205" value="" style="shape=tableRow;horizontal=0;startSize=0;swimlaneHead=0;swimlaneBody=0;strokeColor=#d6b656;top=0;left=0;bottom=0;right=0;collapsible=0;dropTarget=0;fillColor=#fff2cc;points=[[0,0.5],[1,0.5]];portConstraint=eastwest;" vertex="1" parent="iKnaXG9pOddWucdSrnOA-204">
          <mxGeometry width="20" height="20" as="geometry" />
        </mxCell>
        <mxCell id="iKnaXG9pOddWucdSrnOA-206" value="" style="shape=partialRectangle;html=1;whiteSpace=wrap;connectable=0;strokeColor=#d6b656;overflow=hidden;fillColor=#fff2cc;top=0;left=0;bottom=0;right=0;pointerEvents=1;" vertex="1" parent="iKnaXG9pOddWucdSrnOA-205">
          <mxGeometry width="20" height="20" as="geometry">
            <mxRectangle width="20" height="20" as="alternateBounds" />
          </mxGeometry>
        </mxCell>
        <mxCell id="iKnaXG9pOddWucdSrnOA-207" value="" style="shape=partialRectangle;html=1;whiteSpace=wrap;connectable=0;strokeColor=#d6b656;overflow=hidden;fillColor=#fff2cc;top=0;left=0;bottom=0;right=0;pointerEvents=1;" vertex="1" parent="iKnaXG9pOddWucdSrnOA-196">
          <mxGeometry x="20" y="60" width="20" height="20" as="geometry">
            <mxRectangle width="40" height="40" as="alternateBounds" />
          </mxGeometry>
        </mxCell>
        <mxCell id="iKnaXG9pOddWucdSrnOA-208" value="" style="shape=table;startSize=0;container=1;collapsible=0;childLayout=tableLayout;fillColor=#fff2cc;strokeColor=#d6b656;" vertex="1" parent="iKnaXG9pOddWucdSrnOA-196">
          <mxGeometry x="20" y="60" width="20" height="20" as="geometry" />
        </mxCell>
        <mxCell id="iKnaXG9pOddWucdSrnOA-209" value="" style="shape=tableRow;horizontal=0;startSize=0;swimlaneHead=0;swimlaneBody=0;strokeColor=#d6b656;top=0;left=0;bottom=0;right=0;collapsible=0;dropTarget=0;fillColor=#fff2cc;points=[[0,0.5],[1,0.5]];portConstraint=eastwest;" vertex="1" parent="iKnaXG9pOddWucdSrnOA-208">
          <mxGeometry width="20" height="20" as="geometry" />
        </mxCell>
        <mxCell id="iKnaXG9pOddWucdSrnOA-210" value="" style="shape=partialRectangle;html=1;whiteSpace=wrap;connectable=0;strokeColor=#d6b656;overflow=hidden;fillColor=#fff2cc;top=0;left=0;bottom=0;right=0;pointerEvents=1;" vertex="1" parent="iKnaXG9pOddWucdSrnOA-209">
          <mxGeometry width="20" height="20" as="geometry">
            <mxRectangle width="20" height="20" as="alternateBounds" />
          </mxGeometry>
        </mxCell>
        <mxCell id="iKnaXG9pOddWucdSrnOA-211" value="" style="shape=table;startSize=0;container=1;collapsible=0;childLayout=tableLayout;fillColor=#fff2cc;strokeColor=#d6b656;" vertex="1" parent="iKnaXG9pOddWucdSrnOA-196">
          <mxGeometry width="20" height="20" as="geometry" />
        </mxCell>
        <mxCell id="iKnaXG9pOddWucdSrnOA-212" value="" style="shape=tableRow;horizontal=0;startSize=0;swimlaneHead=0;swimlaneBody=0;strokeColor=#d6b656;top=0;left=0;bottom=0;right=0;collapsible=0;dropTarget=0;fillColor=#fff2cc;points=[[0,0.5],[1,0.5]];portConstraint=eastwest;" vertex="1" parent="iKnaXG9pOddWucdSrnOA-211">
          <mxGeometry width="20" height="20" as="geometry" />
        </mxCell>
        <mxCell id="iKnaXG9pOddWucdSrnOA-213" value="" style="shape=partialRectangle;html=1;whiteSpace=wrap;connectable=0;strokeColor=#d6b656;overflow=hidden;fillColor=#fff2cc;top=0;left=0;bottom=0;right=0;pointerEvents=1;" vertex="1" parent="iKnaXG9pOddWucdSrnOA-212">
          <mxGeometry width="20" height="20" as="geometry">
            <mxRectangle width="20" height="20" as="alternateBounds" />
          </mxGeometry>
        </mxCell>
        <mxCell id="iKnaXG9pOddWucdSrnOA-214" value="" style="shape=partialRectangle;html=1;whiteSpace=wrap;connectable=0;strokeColor=#d6b656;overflow=hidden;fillColor=#fff2cc;top=0;left=0;bottom=0;right=0;pointerEvents=1;" vertex="1" parent="iKnaXG9pOddWucdSrnOA-196">
          <mxGeometry x="20" width="20" height="20" as="geometry">
            <mxRectangle width="40" height="40" as="alternateBounds" />
          </mxGeometry>
        </mxCell>
        <mxCell id="iKnaXG9pOddWucdSrnOA-215" value="" style="shape=table;startSize=0;container=1;collapsible=0;childLayout=tableLayout;fillColor=#fff2cc;strokeColor=#d6b656;" vertex="1" parent="iKnaXG9pOddWucdSrnOA-196">
          <mxGeometry x="20" width="20" height="20" as="geometry" />
        </mxCell>
        <mxCell id="iKnaXG9pOddWucdSrnOA-216" value="" style="shape=tableRow;horizontal=0;startSize=0;swimlaneHead=0;swimlaneBody=0;strokeColor=#d6b656;top=0;left=0;bottom=0;right=0;collapsible=0;dropTarget=0;fillColor=#fff2cc;points=[[0,0.5],[1,0.5]];portConstraint=eastwest;" vertex="1" parent="iKnaXG9pOddWucdSrnOA-215">
          <mxGeometry width="20" height="20" as="geometry" />
        </mxCell>
        <mxCell id="iKnaXG9pOddWucdSrnOA-217" value="" style="shape=partialRectangle;html=1;whiteSpace=wrap;connectable=0;strokeColor=#d6b656;overflow=hidden;fillColor=#fff2cc;top=0;left=0;bottom=0;right=0;pointerEvents=1;" vertex="1" parent="iKnaXG9pOddWucdSrnOA-216">
          <mxGeometry width="20" height="20" as="geometry">
            <mxRectangle width="20" height="20" as="alternateBounds" />
          </mxGeometry>
        </mxCell>
        <mxCell id="iKnaXG9pOddWucdSrnOA-218" value="" style="shape=table;startSize=0;container=1;collapsible=0;childLayout=tableLayout;fillColor=#fff2cc;strokeColor=#d6b656;" vertex="1" parent="iKnaXG9pOddWucdSrnOA-196">
          <mxGeometry y="20" width="20" height="20" as="geometry" />
        </mxCell>
        <mxCell id="iKnaXG9pOddWucdSrnOA-219" value="" style="shape=tableRow;horizontal=0;startSize=0;swimlaneHead=0;swimlaneBody=0;strokeColor=#d6b656;top=0;left=0;bottom=0;right=0;collapsible=0;dropTarget=0;fillColor=#fff2cc;points=[[0,0.5],[1,0.5]];portConstraint=eastwest;" vertex="1" parent="iKnaXG9pOddWucdSrnOA-218">
          <mxGeometry width="20" height="20" as="geometry" />
        </mxCell>
        <mxCell id="iKnaXG9pOddWucdSrnOA-220" value="" style="shape=partialRectangle;html=1;whiteSpace=wrap;connectable=0;strokeColor=#d6b656;overflow=hidden;fillColor=#fff2cc;top=0;left=0;bottom=0;right=0;pointerEvents=1;" vertex="1" parent="iKnaXG9pOddWucdSrnOA-219">
          <mxGeometry width="20" height="20" as="geometry">
            <mxRectangle width="20" height="20" as="alternateBounds" />
          </mxGeometry>
        </mxCell>
        <mxCell id="iKnaXG9pOddWucdSrnOA-221" value="" style="shape=partialRectangle;html=1;whiteSpace=wrap;connectable=0;strokeColor=#d6b656;overflow=hidden;fillColor=#fff2cc;top=0;left=0;bottom=0;right=0;pointerEvents=1;" vertex="1" parent="iKnaXG9pOddWucdSrnOA-196">
          <mxGeometry x="20" y="20" width="20" height="20" as="geometry">
            <mxRectangle width="40" height="40" as="alternateBounds" />
          </mxGeometry>
        </mxCell>
        <mxCell id="iKnaXG9pOddWucdSrnOA-222" value="" style="shape=table;startSize=0;container=1;collapsible=0;childLayout=tableLayout;fillColor=#fff2cc;strokeColor=#d6b656;" vertex="1" parent="iKnaXG9pOddWucdSrnOA-196">
          <mxGeometry x="20" y="20" width="20" height="20" as="geometry" />
        </mxCell>
        <mxCell id="iKnaXG9pOddWucdSrnOA-223" value="" style="shape=tableRow;horizontal=0;startSize=0;swimlaneHead=0;swimlaneBody=0;strokeColor=#d6b656;top=0;left=0;bottom=0;right=0;collapsible=0;dropTarget=0;fillColor=#fff2cc;points=[[0,0.5],[1,0.5]];portConstraint=eastwest;" vertex="1" parent="iKnaXG9pOddWucdSrnOA-222">
          <mxGeometry width="20" height="20" as="geometry" />
        </mxCell>
        <mxCell id="iKnaXG9pOddWucdSrnOA-224" value="" style="shape=partialRectangle;html=1;whiteSpace=wrap;connectable=0;strokeColor=#d6b656;overflow=hidden;fillColor=#fff2cc;top=0;left=0;bottom=0;right=0;pointerEvents=1;" vertex="1" parent="iKnaXG9pOddWucdSrnOA-223">
          <mxGeometry width="20" height="20" as="geometry">
            <mxRectangle width="20" height="20" as="alternateBounds" />
          </mxGeometry>
        </mxCell>
        <mxCell id="iKnaXG9pOddWucdSrnOA-225" value="" style="shape=table;startSize=0;container=1;collapsible=0;childLayout=tableLayout;fillColor=#fff2cc;strokeColor=#d6b656;" vertex="1" parent="iKnaXG9pOddWucdSrnOA-196">
          <mxGeometry x="40" y="40" width="20" height="20" as="geometry" />
        </mxCell>
        <mxCell id="iKnaXG9pOddWucdSrnOA-226" value="" style="shape=tableRow;horizontal=0;startSize=0;swimlaneHead=0;swimlaneBody=0;strokeColor=#d6b656;top=0;left=0;bottom=0;right=0;collapsible=0;dropTarget=0;fillColor=#fff2cc;points=[[0,0.5],[1,0.5]];portConstraint=eastwest;" vertex="1" parent="iKnaXG9pOddWucdSrnOA-225">
          <mxGeometry width="20" height="20" as="geometry" />
        </mxCell>
        <mxCell id="iKnaXG9pOddWucdSrnOA-227" value="" style="shape=partialRectangle;html=1;whiteSpace=wrap;connectable=0;strokeColor=#d6b656;overflow=hidden;fillColor=#fff2cc;top=0;left=0;bottom=0;right=0;pointerEvents=1;" vertex="1" parent="iKnaXG9pOddWucdSrnOA-226">
          <mxGeometry width="20" height="20" as="geometry">
            <mxRectangle width="20" height="20" as="alternateBounds" />
          </mxGeometry>
        </mxCell>
        <mxCell id="iKnaXG9pOddWucdSrnOA-228" value="" style="shape=partialRectangle;html=1;whiteSpace=wrap;connectable=0;strokeColor=#d6b656;overflow=hidden;fillColor=#fff2cc;top=0;left=0;bottom=0;right=0;pointerEvents=1;" vertex="1" parent="iKnaXG9pOddWucdSrnOA-196">
          <mxGeometry x="60" y="40" width="20" height="20" as="geometry">
            <mxRectangle width="40" height="40" as="alternateBounds" />
          </mxGeometry>
        </mxCell>
        <mxCell id="iKnaXG9pOddWucdSrnOA-229" value="" style="shape=table;startSize=0;container=1;collapsible=0;childLayout=tableLayout;fillColor=#fff2cc;strokeColor=#d6b656;" vertex="1" parent="iKnaXG9pOddWucdSrnOA-196">
          <mxGeometry x="60" y="40" width="20" height="20" as="geometry" />
        </mxCell>
        <mxCell id="iKnaXG9pOddWucdSrnOA-230" value="" style="shape=tableRow;horizontal=0;startSize=0;swimlaneHead=0;swimlaneBody=0;strokeColor=#d6b656;top=0;left=0;bottom=0;right=0;collapsible=0;dropTarget=0;fillColor=#fff2cc;points=[[0,0.5],[1,0.5]];portConstraint=eastwest;" vertex="1" parent="iKnaXG9pOddWucdSrnOA-229">
          <mxGeometry width="20" height="20" as="geometry" />
        </mxCell>
        <mxCell id="iKnaXG9pOddWucdSrnOA-231" value="" style="shape=partialRectangle;html=1;whiteSpace=wrap;connectable=0;strokeColor=#d6b656;overflow=hidden;fillColor=#fff2cc;top=0;left=0;bottom=0;right=0;pointerEvents=1;" vertex="1" parent="iKnaXG9pOddWucdSrnOA-230">
          <mxGeometry width="20" height="20" as="geometry">
            <mxRectangle width="20" height="20" as="alternateBounds" />
          </mxGeometry>
        </mxCell>
        <mxCell id="iKnaXG9pOddWucdSrnOA-232" value="" style="shape=table;startSize=0;container=1;collapsible=0;childLayout=tableLayout;fillColor=#fff2cc;strokeColor=#d6b656;" vertex="1" parent="iKnaXG9pOddWucdSrnOA-196">
          <mxGeometry x="40" y="60" width="20" height="20" as="geometry" />
        </mxCell>
        <mxCell id="iKnaXG9pOddWucdSrnOA-233" value="" style="shape=tableRow;horizontal=0;startSize=0;swimlaneHead=0;swimlaneBody=0;strokeColor=#d6b656;top=0;left=0;bottom=0;right=0;collapsible=0;dropTarget=0;fillColor=#fff2cc;points=[[0,0.5],[1,0.5]];portConstraint=eastwest;" vertex="1" parent="iKnaXG9pOddWucdSrnOA-232">
          <mxGeometry width="20" height="20" as="geometry" />
        </mxCell>
        <mxCell id="iKnaXG9pOddWucdSrnOA-234" value="" style="shape=partialRectangle;html=1;whiteSpace=wrap;connectable=0;strokeColor=#d6b656;overflow=hidden;fillColor=#fff2cc;top=0;left=0;bottom=0;right=0;pointerEvents=1;" vertex="1" parent="iKnaXG9pOddWucdSrnOA-233">
          <mxGeometry width="20" height="20" as="geometry">
            <mxRectangle width="20" height="20" as="alternateBounds" />
          </mxGeometry>
        </mxCell>
        <mxCell id="iKnaXG9pOddWucdSrnOA-235" value="" style="shape=partialRectangle;html=1;whiteSpace=wrap;connectable=0;strokeColor=#d6b656;overflow=hidden;fillColor=#fff2cc;top=0;left=0;bottom=0;right=0;pointerEvents=1;" vertex="1" parent="iKnaXG9pOddWucdSrnOA-196">
          <mxGeometry x="60" y="60" width="20" height="20" as="geometry">
            <mxRectangle width="40" height="40" as="alternateBounds" />
          </mxGeometry>
        </mxCell>
        <mxCell id="iKnaXG9pOddWucdSrnOA-236" value="" style="shape=table;startSize=0;container=1;collapsible=0;childLayout=tableLayout;fillColor=#fff2cc;strokeColor=#d6b656;" vertex="1" parent="iKnaXG9pOddWucdSrnOA-196">
          <mxGeometry x="60" y="60" width="20" height="20" as="geometry" />
        </mxCell>
        <mxCell id="iKnaXG9pOddWucdSrnOA-237" value="" style="shape=tableRow;horizontal=0;startSize=0;swimlaneHead=0;swimlaneBody=0;strokeColor=#d6b656;top=0;left=0;bottom=0;right=0;collapsible=0;dropTarget=0;fillColor=#fff2cc;points=[[0,0.5],[1,0.5]];portConstraint=eastwest;" vertex="1" parent="iKnaXG9pOddWucdSrnOA-236">
          <mxGeometry width="20" height="20" as="geometry" />
        </mxCell>
        <mxCell id="iKnaXG9pOddWucdSrnOA-238" value="" style="shape=partialRectangle;html=1;whiteSpace=wrap;connectable=0;strokeColor=#d6b656;overflow=hidden;fillColor=#fff2cc;top=0;left=0;bottom=0;right=0;pointerEvents=1;" vertex="1" parent="iKnaXG9pOddWucdSrnOA-237">
          <mxGeometry width="20" height="20" as="geometry">
            <mxRectangle width="20" height="20" as="alternateBounds" />
          </mxGeometry>
        </mxCell>
        <mxCell id="iKnaXG9pOddWucdSrnOA-239" value="" style="shape=table;startSize=0;container=1;collapsible=0;childLayout=tableLayout;fillColor=#fff2cc;strokeColor=#d6b656;" vertex="1" parent="iKnaXG9pOddWucdSrnOA-196">
          <mxGeometry x="40" width="20" height="20" as="geometry" />
        </mxCell>
        <mxCell id="iKnaXG9pOddWucdSrnOA-240" value="" style="shape=tableRow;horizontal=0;startSize=0;swimlaneHead=0;swimlaneBody=0;strokeColor=#d6b656;top=0;left=0;bottom=0;right=0;collapsible=0;dropTarget=0;fillColor=#fff2cc;points=[[0,0.5],[1,0.5]];portConstraint=eastwest;" vertex="1" parent="iKnaXG9pOddWucdSrnOA-239">
          <mxGeometry width="20" height="20" as="geometry" />
        </mxCell>
        <mxCell id="iKnaXG9pOddWucdSrnOA-241" value="" style="shape=partialRectangle;html=1;whiteSpace=wrap;connectable=0;strokeColor=#d6b656;overflow=hidden;fillColor=#fff2cc;top=0;left=0;bottom=0;right=0;pointerEvents=1;" vertex="1" parent="iKnaXG9pOddWucdSrnOA-240">
          <mxGeometry width="20" height="20" as="geometry">
            <mxRectangle width="20" height="20" as="alternateBounds" />
          </mxGeometry>
        </mxCell>
        <mxCell id="iKnaXG9pOddWucdSrnOA-242" value="" style="shape=partialRectangle;html=1;whiteSpace=wrap;connectable=0;strokeColor=#d6b656;overflow=hidden;fillColor=#fff2cc;top=0;left=0;bottom=0;right=0;pointerEvents=1;" vertex="1" parent="iKnaXG9pOddWucdSrnOA-196">
          <mxGeometry x="60" width="20" height="20" as="geometry">
            <mxRectangle width="40" height="40" as="alternateBounds" />
          </mxGeometry>
        </mxCell>
        <mxCell id="iKnaXG9pOddWucdSrnOA-243" value="" style="shape=table;startSize=0;container=1;collapsible=0;childLayout=tableLayout;fillColor=#fff2cc;strokeColor=#d6b656;" vertex="1" parent="iKnaXG9pOddWucdSrnOA-196">
          <mxGeometry x="60" width="20" height="20" as="geometry" />
        </mxCell>
        <mxCell id="iKnaXG9pOddWucdSrnOA-244" value="" style="shape=tableRow;horizontal=0;startSize=0;swimlaneHead=0;swimlaneBody=0;strokeColor=#d6b656;top=0;left=0;bottom=0;right=0;collapsible=0;dropTarget=0;fillColor=#fff2cc;points=[[0,0.5],[1,0.5]];portConstraint=eastwest;" vertex="1" parent="iKnaXG9pOddWucdSrnOA-243">
          <mxGeometry width="20" height="20" as="geometry" />
        </mxCell>
        <mxCell id="iKnaXG9pOddWucdSrnOA-245" value="" style="shape=partialRectangle;html=1;whiteSpace=wrap;connectable=0;strokeColor=#d6b656;overflow=hidden;fillColor=#fff2cc;top=0;left=0;bottom=0;right=0;pointerEvents=1;" vertex="1" parent="iKnaXG9pOddWucdSrnOA-244">
          <mxGeometry width="20" height="20" as="geometry">
            <mxRectangle width="20" height="20" as="alternateBounds" />
          </mxGeometry>
        </mxCell>
        <mxCell id="iKnaXG9pOddWucdSrnOA-246" value="" style="shape=table;startSize=0;container=1;collapsible=0;childLayout=tableLayout;fillColor=#fff2cc;strokeColor=#d6b656;" vertex="1" parent="iKnaXG9pOddWucdSrnOA-196">
          <mxGeometry x="40" y="20" width="20" height="20" as="geometry" />
        </mxCell>
        <mxCell id="iKnaXG9pOddWucdSrnOA-247" value="" style="shape=tableRow;horizontal=0;startSize=0;swimlaneHead=0;swimlaneBody=0;strokeColor=#d6b656;top=0;left=0;bottom=0;right=0;collapsible=0;dropTarget=0;fillColor=#fff2cc;points=[[0,0.5],[1,0.5]];portConstraint=eastwest;" vertex="1" parent="iKnaXG9pOddWucdSrnOA-246">
          <mxGeometry width="20" height="20" as="geometry" />
        </mxCell>
        <mxCell id="iKnaXG9pOddWucdSrnOA-248" value="Q&lt;font style=&quot;font-size: 8px;&quot;&gt;A&lt;/font&gt;" style="shape=partialRectangle;html=1;whiteSpace=wrap;connectable=0;strokeColor=#d6b656;overflow=hidden;fillColor=#fff2cc;top=0;left=0;bottom=0;right=0;pointerEvents=1;" vertex="1" parent="iKnaXG9pOddWucdSrnOA-247">
          <mxGeometry width="20" height="20" as="geometry">
            <mxRectangle width="20" height="20" as="alternateBounds" />
          </mxGeometry>
        </mxCell>
        <mxCell id="iKnaXG9pOddWucdSrnOA-249" value="" style="shape=partialRectangle;html=1;whiteSpace=wrap;connectable=0;strokeColor=#d6b656;overflow=hidden;fillColor=#fff2cc;top=0;left=0;bottom=0;right=0;pointerEvents=1;" vertex="1" parent="iKnaXG9pOddWucdSrnOA-196">
          <mxGeometry x="60" y="20" width="20" height="20" as="geometry">
            <mxRectangle width="40" height="40" as="alternateBounds" />
          </mxGeometry>
        </mxCell>
        <mxCell id="iKnaXG9pOddWucdSrnOA-250" value="" style="shape=table;startSize=0;container=1;collapsible=0;childLayout=tableLayout;fillColor=#fff2cc;strokeColor=#d6b656;" vertex="1" parent="iKnaXG9pOddWucdSrnOA-196">
          <mxGeometry x="60" y="20" width="20" height="20" as="geometry" />
        </mxCell>
        <mxCell id="iKnaXG9pOddWucdSrnOA-251" value="" style="shape=tableRow;horizontal=0;startSize=0;swimlaneHead=0;swimlaneBody=0;strokeColor=#d6b656;top=0;left=0;bottom=0;right=0;collapsible=0;dropTarget=0;fillColor=#fff2cc;points=[[0,0.5],[1,0.5]];portConstraint=eastwest;" vertex="1" parent="iKnaXG9pOddWucdSrnOA-250">
          <mxGeometry width="20" height="20" as="geometry" />
        </mxCell>
        <mxCell id="iKnaXG9pOddWucdSrnOA-252" value="" style="shape=partialRectangle;html=1;whiteSpace=wrap;connectable=0;strokeColor=#d6b656;overflow=hidden;fillColor=#fff2cc;top=0;left=0;bottom=0;right=0;pointerEvents=1;" vertex="1" parent="iKnaXG9pOddWucdSrnOA-251">
          <mxGeometry width="20" height="20" as="geometry">
            <mxRectangle width="20" height="20" as="alternateBounds" />
          </mxGeometry>
        </mxCell>
        <mxCell id="iKnaXG9pOddWucdSrnOA-310" value="" style="group;fillColor=#e1d5e7;strokeColor=#9673a6;" vertex="1" connectable="0" parent="1">
          <mxGeometry x="190" y="1309" width="80" height="80" as="geometry" />
        </mxCell>
        <mxCell id="iKnaXG9pOddWucdSrnOA-311" value="" style="shape=table;startSize=0;container=1;collapsible=0;childLayout=tableLayout;fillColor=#e1d5e7;strokeColor=#9673a6;" vertex="1" parent="iKnaXG9pOddWucdSrnOA-310">
          <mxGeometry y="40" width="20" height="20" as="geometry" />
        </mxCell>
        <mxCell id="iKnaXG9pOddWucdSrnOA-312" value="" style="shape=tableRow;horizontal=0;startSize=0;swimlaneHead=0;swimlaneBody=0;strokeColor=#9673a6;top=0;left=0;bottom=0;right=0;collapsible=0;dropTarget=0;fillColor=#e1d5e7;points=[[0,0.5],[1,0.5]];portConstraint=eastwest;" vertex="1" parent="iKnaXG9pOddWucdSrnOA-311">
          <mxGeometry width="20" height="20" as="geometry" />
        </mxCell>
        <mxCell id="iKnaXG9pOddWucdSrnOA-313" value="" style="shape=partialRectangle;html=1;whiteSpace=wrap;connectable=0;strokeColor=#9673a6;overflow=hidden;fillColor=#e1d5e7;top=0;left=0;bottom=0;right=0;pointerEvents=1;" vertex="1" parent="iKnaXG9pOddWucdSrnOA-312">
          <mxGeometry width="20" height="20" as="geometry">
            <mxRectangle width="20" height="20" as="alternateBounds" />
          </mxGeometry>
        </mxCell>
        <mxCell id="iKnaXG9pOddWucdSrnOA-314" value="" style="shape=partialRectangle;html=1;whiteSpace=wrap;connectable=0;strokeColor=#9673a6;overflow=hidden;fillColor=#e1d5e7;top=0;left=0;bottom=0;right=0;pointerEvents=1;" vertex="1" parent="iKnaXG9pOddWucdSrnOA-310">
          <mxGeometry x="20" y="40" width="20" height="20" as="geometry">
            <mxRectangle width="40" height="40" as="alternateBounds" />
          </mxGeometry>
        </mxCell>
        <mxCell id="iKnaXG9pOddWucdSrnOA-315" value="" style="shape=table;startSize=0;container=1;collapsible=0;childLayout=tableLayout;fillColor=#e1d5e7;strokeColor=#9673a6;" vertex="1" parent="iKnaXG9pOddWucdSrnOA-310">
          <mxGeometry x="20" y="40" width="20" height="20" as="geometry" />
        </mxCell>
        <mxCell id="iKnaXG9pOddWucdSrnOA-316" value="" style="shape=tableRow;horizontal=0;startSize=0;swimlaneHead=0;swimlaneBody=0;strokeColor=#9673a6;top=0;left=0;bottom=0;right=0;collapsible=0;dropTarget=0;fillColor=#e1d5e7;points=[[0,0.5],[1,0.5]];portConstraint=eastwest;" vertex="1" parent="iKnaXG9pOddWucdSrnOA-315">
          <mxGeometry width="20" height="20" as="geometry" />
        </mxCell>
        <mxCell id="iKnaXG9pOddWucdSrnOA-317" value="" style="shape=partialRectangle;html=1;whiteSpace=wrap;connectable=0;strokeColor=#9673a6;overflow=hidden;fillColor=#e1d5e7;top=0;left=0;bottom=0;right=0;pointerEvents=1;" vertex="1" parent="iKnaXG9pOddWucdSrnOA-316">
          <mxGeometry width="20" height="20" as="geometry">
            <mxRectangle width="20" height="20" as="alternateBounds" />
          </mxGeometry>
        </mxCell>
        <mxCell id="iKnaXG9pOddWucdSrnOA-318" value="" style="shape=table;startSize=0;container=1;collapsible=0;childLayout=tableLayout;fillColor=#e1d5e7;strokeColor=#9673a6;" vertex="1" parent="iKnaXG9pOddWucdSrnOA-310">
          <mxGeometry y="60" width="20" height="20" as="geometry" />
        </mxCell>
        <mxCell id="iKnaXG9pOddWucdSrnOA-319" value="" style="shape=tableRow;horizontal=0;startSize=0;swimlaneHead=0;swimlaneBody=0;strokeColor=#9673a6;top=0;left=0;bottom=0;right=0;collapsible=0;dropTarget=0;fillColor=#e1d5e7;points=[[0,0.5],[1,0.5]];portConstraint=eastwest;" vertex="1" parent="iKnaXG9pOddWucdSrnOA-318">
          <mxGeometry width="20" height="20" as="geometry" />
        </mxCell>
        <mxCell id="iKnaXG9pOddWucdSrnOA-320" value="" style="shape=partialRectangle;html=1;whiteSpace=wrap;connectable=0;strokeColor=#9673a6;overflow=hidden;fillColor=#e1d5e7;top=0;left=0;bottom=0;right=0;pointerEvents=1;" vertex="1" parent="iKnaXG9pOddWucdSrnOA-319">
          <mxGeometry width="20" height="20" as="geometry">
            <mxRectangle width="20" height="20" as="alternateBounds" />
          </mxGeometry>
        </mxCell>
        <mxCell id="iKnaXG9pOddWucdSrnOA-321" value="" style="shape=partialRectangle;html=1;whiteSpace=wrap;connectable=0;strokeColor=#9673a6;overflow=hidden;fillColor=#e1d5e7;top=0;left=0;bottom=0;right=0;pointerEvents=1;" vertex="1" parent="iKnaXG9pOddWucdSrnOA-310">
          <mxGeometry x="20" y="60" width="20" height="20" as="geometry">
            <mxRectangle width="40" height="40" as="alternateBounds" />
          </mxGeometry>
        </mxCell>
        <mxCell id="iKnaXG9pOddWucdSrnOA-322" value="" style="shape=table;startSize=0;container=1;collapsible=0;childLayout=tableLayout;fillColor=#e1d5e7;strokeColor=#9673a6;" vertex="1" parent="iKnaXG9pOddWucdSrnOA-310">
          <mxGeometry x="20" y="60" width="20" height="20" as="geometry" />
        </mxCell>
        <mxCell id="iKnaXG9pOddWucdSrnOA-323" value="" style="shape=tableRow;horizontal=0;startSize=0;swimlaneHead=0;swimlaneBody=0;strokeColor=#9673a6;top=0;left=0;bottom=0;right=0;collapsible=0;dropTarget=0;fillColor=#e1d5e7;points=[[0,0.5],[1,0.5]];portConstraint=eastwest;" vertex="1" parent="iKnaXG9pOddWucdSrnOA-322">
          <mxGeometry width="20" height="20" as="geometry" />
        </mxCell>
        <mxCell id="iKnaXG9pOddWucdSrnOA-324" value="" style="shape=partialRectangle;html=1;whiteSpace=wrap;connectable=0;strokeColor=#9673a6;overflow=hidden;fillColor=#e1d5e7;top=0;left=0;bottom=0;right=0;pointerEvents=1;" vertex="1" parent="iKnaXG9pOddWucdSrnOA-323">
          <mxGeometry width="20" height="20" as="geometry">
            <mxRectangle width="20" height="20" as="alternateBounds" />
          </mxGeometry>
        </mxCell>
        <mxCell id="iKnaXG9pOddWucdSrnOA-325" value="" style="shape=table;startSize=0;container=1;collapsible=0;childLayout=tableLayout;fillColor=#e1d5e7;strokeColor=#9673a6;" vertex="1" parent="iKnaXG9pOddWucdSrnOA-310">
          <mxGeometry width="20" height="20" as="geometry" />
        </mxCell>
        <mxCell id="iKnaXG9pOddWucdSrnOA-326" value="" style="shape=tableRow;horizontal=0;startSize=0;swimlaneHead=0;swimlaneBody=0;strokeColor=#9673a6;top=0;left=0;bottom=0;right=0;collapsible=0;dropTarget=0;fillColor=#e1d5e7;points=[[0,0.5],[1,0.5]];portConstraint=eastwest;" vertex="1" parent="iKnaXG9pOddWucdSrnOA-325">
          <mxGeometry width="20" height="20" as="geometry" />
        </mxCell>
        <mxCell id="iKnaXG9pOddWucdSrnOA-327" value="" style="shape=partialRectangle;html=1;whiteSpace=wrap;connectable=0;strokeColor=#9673a6;overflow=hidden;fillColor=#e1d5e7;top=0;left=0;bottom=0;right=0;pointerEvents=1;" vertex="1" parent="iKnaXG9pOddWucdSrnOA-326">
          <mxGeometry width="20" height="20" as="geometry">
            <mxRectangle width="20" height="20" as="alternateBounds" />
          </mxGeometry>
        </mxCell>
        <mxCell id="iKnaXG9pOddWucdSrnOA-328" value="" style="shape=partialRectangle;html=1;whiteSpace=wrap;connectable=0;strokeColor=#9673a6;overflow=hidden;fillColor=#e1d5e7;top=0;left=0;bottom=0;right=0;pointerEvents=1;" vertex="1" parent="iKnaXG9pOddWucdSrnOA-310">
          <mxGeometry x="20" width="20" height="20" as="geometry">
            <mxRectangle width="40" height="40" as="alternateBounds" />
          </mxGeometry>
        </mxCell>
        <mxCell id="iKnaXG9pOddWucdSrnOA-329" value="" style="shape=table;startSize=0;container=1;collapsible=0;childLayout=tableLayout;fillColor=#e1d5e7;strokeColor=#9673a6;" vertex="1" parent="iKnaXG9pOddWucdSrnOA-310">
          <mxGeometry x="20" width="20" height="20" as="geometry" />
        </mxCell>
        <mxCell id="iKnaXG9pOddWucdSrnOA-330" value="" style="shape=tableRow;horizontal=0;startSize=0;swimlaneHead=0;swimlaneBody=0;strokeColor=#9673a6;top=0;left=0;bottom=0;right=0;collapsible=0;dropTarget=0;fillColor=#e1d5e7;points=[[0,0.5],[1,0.5]];portConstraint=eastwest;" vertex="1" parent="iKnaXG9pOddWucdSrnOA-329">
          <mxGeometry width="20" height="20" as="geometry" />
        </mxCell>
        <mxCell id="iKnaXG9pOddWucdSrnOA-331" value="" style="shape=partialRectangle;html=1;whiteSpace=wrap;connectable=0;strokeColor=#9673a6;overflow=hidden;fillColor=#e1d5e7;top=0;left=0;bottom=0;right=0;pointerEvents=1;" vertex="1" parent="iKnaXG9pOddWucdSrnOA-330">
          <mxGeometry width="20" height="20" as="geometry">
            <mxRectangle width="20" height="20" as="alternateBounds" />
          </mxGeometry>
        </mxCell>
        <mxCell id="iKnaXG9pOddWucdSrnOA-332" value="" style="shape=table;startSize=0;container=1;collapsible=0;childLayout=tableLayout;fillColor=#e1d5e7;strokeColor=#9673a6;" vertex="1" parent="iKnaXG9pOddWucdSrnOA-310">
          <mxGeometry y="20" width="20" height="20" as="geometry" />
        </mxCell>
        <mxCell id="iKnaXG9pOddWucdSrnOA-333" value="" style="shape=tableRow;horizontal=0;startSize=0;swimlaneHead=0;swimlaneBody=0;strokeColor=#9673a6;top=0;left=0;bottom=0;right=0;collapsible=0;dropTarget=0;fillColor=#e1d5e7;points=[[0,0.5],[1,0.5]];portConstraint=eastwest;" vertex="1" parent="iKnaXG9pOddWucdSrnOA-332">
          <mxGeometry width="20" height="20" as="geometry" />
        </mxCell>
        <mxCell id="iKnaXG9pOddWucdSrnOA-334" value="" style="shape=partialRectangle;html=1;whiteSpace=wrap;connectable=0;strokeColor=#9673a6;overflow=hidden;fillColor=#e1d5e7;top=0;left=0;bottom=0;right=0;pointerEvents=1;" vertex="1" parent="iKnaXG9pOddWucdSrnOA-333">
          <mxGeometry width="20" height="20" as="geometry">
            <mxRectangle width="20" height="20" as="alternateBounds" />
          </mxGeometry>
        </mxCell>
        <mxCell id="iKnaXG9pOddWucdSrnOA-335" value="" style="shape=partialRectangle;html=1;whiteSpace=wrap;connectable=0;strokeColor=#9673a6;overflow=hidden;fillColor=#e1d5e7;top=0;left=0;bottom=0;right=0;pointerEvents=1;" vertex="1" parent="iKnaXG9pOddWucdSrnOA-310">
          <mxGeometry x="20" y="20" width="20" height="20" as="geometry">
            <mxRectangle width="40" height="40" as="alternateBounds" />
          </mxGeometry>
        </mxCell>
        <mxCell id="iKnaXG9pOddWucdSrnOA-336" value="" style="shape=table;startSize=0;container=1;collapsible=0;childLayout=tableLayout;fillColor=#e1d5e7;strokeColor=#9673a6;" vertex="1" parent="iKnaXG9pOddWucdSrnOA-310">
          <mxGeometry x="20" y="20" width="20" height="20" as="geometry" />
        </mxCell>
        <mxCell id="iKnaXG9pOddWucdSrnOA-337" value="" style="shape=tableRow;horizontal=0;startSize=0;swimlaneHead=0;swimlaneBody=0;strokeColor=#9673a6;top=0;left=0;bottom=0;right=0;collapsible=0;dropTarget=0;fillColor=#e1d5e7;points=[[0,0.5],[1,0.5]];portConstraint=eastwest;" vertex="1" parent="iKnaXG9pOddWucdSrnOA-336">
          <mxGeometry width="20" height="20" as="geometry" />
        </mxCell>
        <mxCell id="iKnaXG9pOddWucdSrnOA-338" value="" style="shape=partialRectangle;html=1;whiteSpace=wrap;connectable=0;strokeColor=#9673a6;overflow=hidden;fillColor=#e1d5e7;top=0;left=0;bottom=0;right=0;pointerEvents=1;" vertex="1" parent="iKnaXG9pOddWucdSrnOA-337">
          <mxGeometry width="20" height="20" as="geometry">
            <mxRectangle width="20" height="20" as="alternateBounds" />
          </mxGeometry>
        </mxCell>
        <mxCell id="iKnaXG9pOddWucdSrnOA-339" value="" style="shape=table;startSize=0;container=1;collapsible=0;childLayout=tableLayout;fillColor=#e1d5e7;strokeColor=#9673a6;" vertex="1" parent="iKnaXG9pOddWucdSrnOA-310">
          <mxGeometry x="40" y="40" width="20" height="20" as="geometry" />
        </mxCell>
        <mxCell id="iKnaXG9pOddWucdSrnOA-340" value="" style="shape=tableRow;horizontal=0;startSize=0;swimlaneHead=0;swimlaneBody=0;strokeColor=#9673a6;top=0;left=0;bottom=0;right=0;collapsible=0;dropTarget=0;fillColor=#e1d5e7;points=[[0,0.5],[1,0.5]];portConstraint=eastwest;" vertex="1" parent="iKnaXG9pOddWucdSrnOA-339">
          <mxGeometry width="20" height="20" as="geometry" />
        </mxCell>
        <mxCell id="iKnaXG9pOddWucdSrnOA-341" value="" style="shape=partialRectangle;html=1;whiteSpace=wrap;connectable=0;strokeColor=#9673a6;overflow=hidden;fillColor=#e1d5e7;top=0;left=0;bottom=0;right=0;pointerEvents=1;" vertex="1" parent="iKnaXG9pOddWucdSrnOA-340">
          <mxGeometry width="20" height="20" as="geometry">
            <mxRectangle width="20" height="20" as="alternateBounds" />
          </mxGeometry>
        </mxCell>
        <mxCell id="iKnaXG9pOddWucdSrnOA-342" value="" style="shape=partialRectangle;html=1;whiteSpace=wrap;connectable=0;strokeColor=#9673a6;overflow=hidden;fillColor=#e1d5e7;top=0;left=0;bottom=0;right=0;pointerEvents=1;" vertex="1" parent="iKnaXG9pOddWucdSrnOA-310">
          <mxGeometry x="60" y="40" width="20" height="20" as="geometry">
            <mxRectangle width="40" height="40" as="alternateBounds" />
          </mxGeometry>
        </mxCell>
        <mxCell id="iKnaXG9pOddWucdSrnOA-343" value="" style="shape=table;startSize=0;container=1;collapsible=0;childLayout=tableLayout;fillColor=#e1d5e7;strokeColor=#9673a6;" vertex="1" parent="iKnaXG9pOddWucdSrnOA-310">
          <mxGeometry x="60" y="40" width="20" height="20" as="geometry" />
        </mxCell>
        <mxCell id="iKnaXG9pOddWucdSrnOA-344" value="" style="shape=tableRow;horizontal=0;startSize=0;swimlaneHead=0;swimlaneBody=0;strokeColor=#9673a6;top=0;left=0;bottom=0;right=0;collapsible=0;dropTarget=0;fillColor=#e1d5e7;points=[[0,0.5],[1,0.5]];portConstraint=eastwest;" vertex="1" parent="iKnaXG9pOddWucdSrnOA-343">
          <mxGeometry width="20" height="20" as="geometry" />
        </mxCell>
        <mxCell id="iKnaXG9pOddWucdSrnOA-345" value="" style="shape=partialRectangle;html=1;whiteSpace=wrap;connectable=0;strokeColor=#9673a6;overflow=hidden;fillColor=#e1d5e7;top=0;left=0;bottom=0;right=0;pointerEvents=1;" vertex="1" parent="iKnaXG9pOddWucdSrnOA-344">
          <mxGeometry width="20" height="20" as="geometry">
            <mxRectangle width="20" height="20" as="alternateBounds" />
          </mxGeometry>
        </mxCell>
        <mxCell id="iKnaXG9pOddWucdSrnOA-346" value="" style="shape=table;startSize=0;container=1;collapsible=0;childLayout=tableLayout;fillColor=#e1d5e7;strokeColor=#9673a6;" vertex="1" parent="iKnaXG9pOddWucdSrnOA-310">
          <mxGeometry x="40" y="60" width="20" height="20" as="geometry" />
        </mxCell>
        <mxCell id="iKnaXG9pOddWucdSrnOA-347" value="" style="shape=tableRow;horizontal=0;startSize=0;swimlaneHead=0;swimlaneBody=0;strokeColor=#9673a6;top=0;left=0;bottom=0;right=0;collapsible=0;dropTarget=0;fillColor=#e1d5e7;points=[[0,0.5],[1,0.5]];portConstraint=eastwest;" vertex="1" parent="iKnaXG9pOddWucdSrnOA-346">
          <mxGeometry width="20" height="20" as="geometry" />
        </mxCell>
        <mxCell id="iKnaXG9pOddWucdSrnOA-348" value="" style="shape=partialRectangle;html=1;whiteSpace=wrap;connectable=0;strokeColor=#9673a6;overflow=hidden;fillColor=#e1d5e7;top=0;left=0;bottom=0;right=0;pointerEvents=1;" vertex="1" parent="iKnaXG9pOddWucdSrnOA-347">
          <mxGeometry width="20" height="20" as="geometry">
            <mxRectangle width="20" height="20" as="alternateBounds" />
          </mxGeometry>
        </mxCell>
        <mxCell id="iKnaXG9pOddWucdSrnOA-349" value="" style="shape=partialRectangle;html=1;whiteSpace=wrap;connectable=0;strokeColor=#9673a6;overflow=hidden;fillColor=#e1d5e7;top=0;left=0;bottom=0;right=0;pointerEvents=1;" vertex="1" parent="iKnaXG9pOddWucdSrnOA-310">
          <mxGeometry x="60" y="60" width="20" height="20" as="geometry">
            <mxRectangle width="40" height="40" as="alternateBounds" />
          </mxGeometry>
        </mxCell>
        <mxCell id="iKnaXG9pOddWucdSrnOA-350" value="" style="shape=table;startSize=0;container=1;collapsible=0;childLayout=tableLayout;fillColor=#e1d5e7;strokeColor=#9673a6;" vertex="1" parent="iKnaXG9pOddWucdSrnOA-310">
          <mxGeometry x="60" y="60" width="20" height="20" as="geometry" />
        </mxCell>
        <mxCell id="iKnaXG9pOddWucdSrnOA-351" value="" style="shape=tableRow;horizontal=0;startSize=0;swimlaneHead=0;swimlaneBody=0;strokeColor=#9673a6;top=0;left=0;bottom=0;right=0;collapsible=0;dropTarget=0;fillColor=#e1d5e7;points=[[0,0.5],[1,0.5]];portConstraint=eastwest;" vertex="1" parent="iKnaXG9pOddWucdSrnOA-350">
          <mxGeometry width="20" height="20" as="geometry" />
        </mxCell>
        <mxCell id="iKnaXG9pOddWucdSrnOA-352" value="" style="shape=partialRectangle;html=1;whiteSpace=wrap;connectable=0;strokeColor=#9673a6;overflow=hidden;fillColor=#e1d5e7;top=0;left=0;bottom=0;right=0;pointerEvents=1;" vertex="1" parent="iKnaXG9pOddWucdSrnOA-351">
          <mxGeometry width="20" height="20" as="geometry">
            <mxRectangle width="20" height="20" as="alternateBounds" />
          </mxGeometry>
        </mxCell>
        <mxCell id="iKnaXG9pOddWucdSrnOA-353" value="" style="shape=table;startSize=0;container=1;collapsible=0;childLayout=tableLayout;fillColor=#e1d5e7;strokeColor=#9673a6;" vertex="1" parent="iKnaXG9pOddWucdSrnOA-310">
          <mxGeometry x="40" width="20" height="20" as="geometry" />
        </mxCell>
        <mxCell id="iKnaXG9pOddWucdSrnOA-354" value="" style="shape=tableRow;horizontal=0;startSize=0;swimlaneHead=0;swimlaneBody=0;strokeColor=#9673a6;top=0;left=0;bottom=0;right=0;collapsible=0;dropTarget=0;fillColor=#e1d5e7;points=[[0,0.5],[1,0.5]];portConstraint=eastwest;" vertex="1" parent="iKnaXG9pOddWucdSrnOA-353">
          <mxGeometry width="20" height="20" as="geometry" />
        </mxCell>
        <mxCell id="iKnaXG9pOddWucdSrnOA-355" value="" style="shape=partialRectangle;html=1;whiteSpace=wrap;connectable=0;strokeColor=#9673a6;overflow=hidden;fillColor=#e1d5e7;top=0;left=0;bottom=0;right=0;pointerEvents=1;" vertex="1" parent="iKnaXG9pOddWucdSrnOA-354">
          <mxGeometry width="20" height="20" as="geometry">
            <mxRectangle width="20" height="20" as="alternateBounds" />
          </mxGeometry>
        </mxCell>
        <mxCell id="iKnaXG9pOddWucdSrnOA-356" value="" style="shape=partialRectangle;html=1;whiteSpace=wrap;connectable=0;strokeColor=#9673a6;overflow=hidden;fillColor=#e1d5e7;top=0;left=0;bottom=0;right=0;pointerEvents=1;" vertex="1" parent="iKnaXG9pOddWucdSrnOA-310">
          <mxGeometry x="60" width="20" height="20" as="geometry">
            <mxRectangle width="40" height="40" as="alternateBounds" />
          </mxGeometry>
        </mxCell>
        <mxCell id="iKnaXG9pOddWucdSrnOA-357" value="" style="shape=table;startSize=0;container=1;collapsible=0;childLayout=tableLayout;fillColor=#e1d5e7;strokeColor=#9673a6;" vertex="1" parent="iKnaXG9pOddWucdSrnOA-310">
          <mxGeometry x="60" width="20" height="20" as="geometry" />
        </mxCell>
        <mxCell id="iKnaXG9pOddWucdSrnOA-358" value="" style="shape=tableRow;horizontal=0;startSize=0;swimlaneHead=0;swimlaneBody=0;strokeColor=#9673a6;top=0;left=0;bottom=0;right=0;collapsible=0;dropTarget=0;fillColor=#e1d5e7;points=[[0,0.5],[1,0.5]];portConstraint=eastwest;" vertex="1" parent="iKnaXG9pOddWucdSrnOA-357">
          <mxGeometry width="20" height="20" as="geometry" />
        </mxCell>
        <mxCell id="iKnaXG9pOddWucdSrnOA-359" value="" style="shape=partialRectangle;html=1;whiteSpace=wrap;connectable=0;strokeColor=#9673a6;overflow=hidden;fillColor=#e1d5e7;top=0;left=0;bottom=0;right=0;pointerEvents=1;" vertex="1" parent="iKnaXG9pOddWucdSrnOA-358">
          <mxGeometry width="20" height="20" as="geometry">
            <mxRectangle width="20" height="20" as="alternateBounds" />
          </mxGeometry>
        </mxCell>
        <mxCell id="iKnaXG9pOddWucdSrnOA-360" value="" style="shape=table;startSize=0;container=1;collapsible=0;childLayout=tableLayout;fillColor=#e1d5e7;strokeColor=#9673a6;" vertex="1" parent="iKnaXG9pOddWucdSrnOA-310">
          <mxGeometry x="40" y="20" width="20" height="20" as="geometry" />
        </mxCell>
        <mxCell id="iKnaXG9pOddWucdSrnOA-361" value="" style="shape=tableRow;horizontal=0;startSize=0;swimlaneHead=0;swimlaneBody=0;strokeColor=#9673a6;top=0;left=0;bottom=0;right=0;collapsible=0;dropTarget=0;fillColor=#e1d5e7;points=[[0,0.5],[1,0.5]];portConstraint=eastwest;" vertex="1" parent="iKnaXG9pOddWucdSrnOA-360">
          <mxGeometry width="20" height="20" as="geometry" />
        </mxCell>
        <mxCell id="iKnaXG9pOddWucdSrnOA-362" value="K&lt;font style=&quot;font-size: 8px;&quot;&gt;A&lt;/font&gt;" style="shape=partialRectangle;html=1;whiteSpace=wrap;connectable=0;strokeColor=#9673a6;overflow=hidden;fillColor=#e1d5e7;top=0;left=0;bottom=0;right=0;pointerEvents=1;" vertex="1" parent="iKnaXG9pOddWucdSrnOA-361">
          <mxGeometry width="20" height="20" as="geometry">
            <mxRectangle width="20" height="20" as="alternateBounds" />
          </mxGeometry>
        </mxCell>
        <mxCell id="iKnaXG9pOddWucdSrnOA-363" value="" style="shape=partialRectangle;html=1;whiteSpace=wrap;connectable=0;strokeColor=#9673a6;overflow=hidden;fillColor=#e1d5e7;top=0;left=0;bottom=0;right=0;pointerEvents=1;" vertex="1" parent="iKnaXG9pOddWucdSrnOA-310">
          <mxGeometry x="60" y="20" width="20" height="20" as="geometry">
            <mxRectangle width="40" height="40" as="alternateBounds" />
          </mxGeometry>
        </mxCell>
        <mxCell id="iKnaXG9pOddWucdSrnOA-364" value="" style="shape=table;startSize=0;container=1;collapsible=0;childLayout=tableLayout;fillColor=#e1d5e7;strokeColor=#9673a6;" vertex="1" parent="iKnaXG9pOddWucdSrnOA-310">
          <mxGeometry x="60" y="20" width="20" height="20" as="geometry" />
        </mxCell>
        <mxCell id="iKnaXG9pOddWucdSrnOA-365" value="" style="shape=tableRow;horizontal=0;startSize=0;swimlaneHead=0;swimlaneBody=0;strokeColor=#9673a6;top=0;left=0;bottom=0;right=0;collapsible=0;dropTarget=0;fillColor=#e1d5e7;points=[[0,0.5],[1,0.5]];portConstraint=eastwest;" vertex="1" parent="iKnaXG9pOddWucdSrnOA-364">
          <mxGeometry width="20" height="20" as="geometry" />
        </mxCell>
        <mxCell id="iKnaXG9pOddWucdSrnOA-366" value="" style="shape=partialRectangle;html=1;whiteSpace=wrap;connectable=0;strokeColor=#9673a6;overflow=hidden;fillColor=#e1d5e7;top=0;left=0;bottom=0;right=0;pointerEvents=1;" vertex="1" parent="iKnaXG9pOddWucdSrnOA-365">
          <mxGeometry width="20" height="20" as="geometry">
            <mxRectangle width="20" height="20" as="alternateBounds" />
          </mxGeometry>
        </mxCell>
        <mxCell id="iKnaXG9pOddWucdSrnOA-426" value="" style="endArrow=classic;html=1;rounded=0;entryX=0.083;entryY=0;entryDx=0;entryDy=0;entryPerimeter=0;" edge="1" parent="iKnaXG9pOddWucdSrnOA-310" target="iKnaXG9pOddWucdSrnOA-312">
          <mxGeometry width="50" height="50" relative="1" as="geometry">
            <mxPoint x="-40" y="40" as="sourcePoint" />
            <mxPoint x="10" y="-10" as="targetPoint" />
          </mxGeometry>
        </mxCell>
        <mxCell id="iKnaXG9pOddWucdSrnOA-367" value="" style="group;fillColor=#d5e8d4;strokeColor=#82b366;" vertex="1" connectable="0" parent="1">
          <mxGeometry x="190" y="1420" width="80" height="80" as="geometry" />
        </mxCell>
        <mxCell id="iKnaXG9pOddWucdSrnOA-368" value="" style="shape=table;startSize=0;container=1;collapsible=0;childLayout=tableLayout;fillColor=#d5e8d4;strokeColor=#82b366;" vertex="1" parent="iKnaXG9pOddWucdSrnOA-367">
          <mxGeometry y="40" width="20" height="20" as="geometry" />
        </mxCell>
        <mxCell id="iKnaXG9pOddWucdSrnOA-369" value="" style="shape=tableRow;horizontal=0;startSize=0;swimlaneHead=0;swimlaneBody=0;strokeColor=#82b366;top=0;left=0;bottom=0;right=0;collapsible=0;dropTarget=0;fillColor=#d5e8d4;points=[[0,0.5],[1,0.5]];portConstraint=eastwest;" vertex="1" parent="iKnaXG9pOddWucdSrnOA-368">
          <mxGeometry width="20" height="20" as="geometry" />
        </mxCell>
        <mxCell id="iKnaXG9pOddWucdSrnOA-370" value="" style="shape=partialRectangle;html=1;whiteSpace=wrap;connectable=0;strokeColor=#82b366;overflow=hidden;fillColor=#d5e8d4;top=0;left=0;bottom=0;right=0;pointerEvents=1;" vertex="1" parent="iKnaXG9pOddWucdSrnOA-369">
          <mxGeometry width="20" height="20" as="geometry">
            <mxRectangle width="20" height="20" as="alternateBounds" />
          </mxGeometry>
        </mxCell>
        <mxCell id="iKnaXG9pOddWucdSrnOA-371" value="" style="shape=partialRectangle;html=1;whiteSpace=wrap;connectable=0;strokeColor=#82b366;overflow=hidden;fillColor=#d5e8d4;top=0;left=0;bottom=0;right=0;pointerEvents=1;" vertex="1" parent="iKnaXG9pOddWucdSrnOA-367">
          <mxGeometry x="20" y="40" width="20" height="20" as="geometry">
            <mxRectangle width="40" height="40" as="alternateBounds" />
          </mxGeometry>
        </mxCell>
        <mxCell id="iKnaXG9pOddWucdSrnOA-372" value="" style="shape=table;startSize=0;container=1;collapsible=0;childLayout=tableLayout;fillColor=#d5e8d4;strokeColor=#82b366;" vertex="1" parent="iKnaXG9pOddWucdSrnOA-367">
          <mxGeometry x="20" y="40" width="20" height="20" as="geometry" />
        </mxCell>
        <mxCell id="iKnaXG9pOddWucdSrnOA-373" value="" style="shape=tableRow;horizontal=0;startSize=0;swimlaneHead=0;swimlaneBody=0;strokeColor=#82b366;top=0;left=0;bottom=0;right=0;collapsible=0;dropTarget=0;fillColor=#d5e8d4;points=[[0,0.5],[1,0.5]];portConstraint=eastwest;" vertex="1" parent="iKnaXG9pOddWucdSrnOA-372">
          <mxGeometry width="20" height="20" as="geometry" />
        </mxCell>
        <mxCell id="iKnaXG9pOddWucdSrnOA-374" value="" style="shape=partialRectangle;html=1;whiteSpace=wrap;connectable=0;strokeColor=#82b366;overflow=hidden;fillColor=#d5e8d4;top=0;left=0;bottom=0;right=0;pointerEvents=1;" vertex="1" parent="iKnaXG9pOddWucdSrnOA-373">
          <mxGeometry width="20" height="20" as="geometry">
            <mxRectangle width="20" height="20" as="alternateBounds" />
          </mxGeometry>
        </mxCell>
        <mxCell id="iKnaXG9pOddWucdSrnOA-382" value="" style="shape=table;startSize=0;container=1;collapsible=0;childLayout=tableLayout;fillColor=#d5e8d4;strokeColor=#82b366;" vertex="1" parent="iKnaXG9pOddWucdSrnOA-367">
          <mxGeometry width="20" height="20" as="geometry" />
        </mxCell>
        <mxCell id="iKnaXG9pOddWucdSrnOA-383" value="" style="shape=tableRow;horizontal=0;startSize=0;swimlaneHead=0;swimlaneBody=0;strokeColor=#82b366;top=0;left=0;bottom=0;right=0;collapsible=0;dropTarget=0;fillColor=#d5e8d4;points=[[0,0.5],[1,0.5]];portConstraint=eastwest;" vertex="1" parent="iKnaXG9pOddWucdSrnOA-382">
          <mxGeometry width="20" height="20" as="geometry" />
        </mxCell>
        <mxCell id="iKnaXG9pOddWucdSrnOA-384" value="" style="shape=partialRectangle;html=1;whiteSpace=wrap;connectable=0;strokeColor=#82b366;overflow=hidden;fillColor=#d5e8d4;top=0;left=0;bottom=0;right=0;pointerEvents=1;" vertex="1" parent="iKnaXG9pOddWucdSrnOA-383">
          <mxGeometry width="20" height="20" as="geometry">
            <mxRectangle width="20" height="20" as="alternateBounds" />
          </mxGeometry>
        </mxCell>
        <mxCell id="iKnaXG9pOddWucdSrnOA-385" value="" style="shape=partialRectangle;html=1;whiteSpace=wrap;connectable=0;strokeColor=#82b366;overflow=hidden;fillColor=#d5e8d4;top=0;left=0;bottom=0;right=0;pointerEvents=1;" vertex="1" parent="iKnaXG9pOddWucdSrnOA-367">
          <mxGeometry x="20" width="20" height="20" as="geometry">
            <mxRectangle width="40" height="40" as="alternateBounds" />
          </mxGeometry>
        </mxCell>
        <mxCell id="iKnaXG9pOddWucdSrnOA-386" value="" style="shape=table;startSize=0;container=1;collapsible=0;childLayout=tableLayout;fillColor=#d5e8d4;strokeColor=#82b366;" vertex="1" parent="iKnaXG9pOddWucdSrnOA-367">
          <mxGeometry x="20" width="20" height="20" as="geometry" />
        </mxCell>
        <mxCell id="iKnaXG9pOddWucdSrnOA-387" value="" style="shape=tableRow;horizontal=0;startSize=0;swimlaneHead=0;swimlaneBody=0;strokeColor=#82b366;top=0;left=0;bottom=0;right=0;collapsible=0;dropTarget=0;fillColor=#d5e8d4;points=[[0,0.5],[1,0.5]];portConstraint=eastwest;" vertex="1" parent="iKnaXG9pOddWucdSrnOA-386">
          <mxGeometry width="20" height="20" as="geometry" />
        </mxCell>
        <mxCell id="iKnaXG9pOddWucdSrnOA-388" value="" style="shape=partialRectangle;html=1;whiteSpace=wrap;connectable=0;strokeColor=#82b366;overflow=hidden;fillColor=#d5e8d4;top=0;left=0;bottom=0;right=0;pointerEvents=1;" vertex="1" parent="iKnaXG9pOddWucdSrnOA-387">
          <mxGeometry width="20" height="20" as="geometry">
            <mxRectangle width="20" height="20" as="alternateBounds" />
          </mxGeometry>
        </mxCell>
        <mxCell id="iKnaXG9pOddWucdSrnOA-389" value="" style="shape=table;startSize=0;container=1;collapsible=0;childLayout=tableLayout;fillColor=#d5e8d4;strokeColor=#82b366;" vertex="1" parent="iKnaXG9pOddWucdSrnOA-367">
          <mxGeometry y="20" width="20" height="20" as="geometry" />
        </mxCell>
        <mxCell id="iKnaXG9pOddWucdSrnOA-390" value="" style="shape=tableRow;horizontal=0;startSize=0;swimlaneHead=0;swimlaneBody=0;strokeColor=#82b366;top=0;left=0;bottom=0;right=0;collapsible=0;dropTarget=0;fillColor=#d5e8d4;points=[[0,0.5],[1,0.5]];portConstraint=eastwest;" vertex="1" parent="iKnaXG9pOddWucdSrnOA-389">
          <mxGeometry width="20" height="20" as="geometry" />
        </mxCell>
        <mxCell id="iKnaXG9pOddWucdSrnOA-391" value="" style="shape=partialRectangle;html=1;whiteSpace=wrap;connectable=0;strokeColor=#82b366;overflow=hidden;fillColor=#d5e8d4;top=0;left=0;bottom=0;right=0;pointerEvents=1;" vertex="1" parent="iKnaXG9pOddWucdSrnOA-390">
          <mxGeometry width="20" height="20" as="geometry">
            <mxRectangle width="20" height="20" as="alternateBounds" />
          </mxGeometry>
        </mxCell>
        <mxCell id="iKnaXG9pOddWucdSrnOA-392" value="" style="shape=partialRectangle;html=1;whiteSpace=wrap;connectable=0;strokeColor=#82b366;overflow=hidden;fillColor=#d5e8d4;top=0;left=0;bottom=0;right=0;pointerEvents=1;" vertex="1" parent="iKnaXG9pOddWucdSrnOA-367">
          <mxGeometry x="20" y="20" width="20" height="20" as="geometry">
            <mxRectangle width="40" height="40" as="alternateBounds" />
          </mxGeometry>
        </mxCell>
        <mxCell id="iKnaXG9pOddWucdSrnOA-393" value="" style="shape=table;startSize=0;container=1;collapsible=0;childLayout=tableLayout;fillColor=#d5e8d4;strokeColor=#82b366;" vertex="1" parent="iKnaXG9pOddWucdSrnOA-367">
          <mxGeometry x="20" y="20" width="20" height="20" as="geometry" />
        </mxCell>
        <mxCell id="iKnaXG9pOddWucdSrnOA-394" value="" style="shape=tableRow;horizontal=0;startSize=0;swimlaneHead=0;swimlaneBody=0;strokeColor=#82b366;top=0;left=0;bottom=0;right=0;collapsible=0;dropTarget=0;fillColor=#d5e8d4;points=[[0,0.5],[1,0.5]];portConstraint=eastwest;" vertex="1" parent="iKnaXG9pOddWucdSrnOA-393">
          <mxGeometry width="20" height="20" as="geometry" />
        </mxCell>
        <mxCell id="iKnaXG9pOddWucdSrnOA-395" value="" style="shape=partialRectangle;html=1;whiteSpace=wrap;connectable=0;strokeColor=#82b366;overflow=hidden;fillColor=#d5e8d4;top=0;left=0;bottom=0;right=0;pointerEvents=1;" vertex="1" parent="iKnaXG9pOddWucdSrnOA-394">
          <mxGeometry width="20" height="20" as="geometry">
            <mxRectangle width="20" height="20" as="alternateBounds" />
          </mxGeometry>
        </mxCell>
        <mxCell id="iKnaXG9pOddWucdSrnOA-396" value="" style="shape=table;startSize=0;container=1;collapsible=0;childLayout=tableLayout;fillColor=#d5e8d4;strokeColor=#82b366;" vertex="1" parent="iKnaXG9pOddWucdSrnOA-367">
          <mxGeometry x="40" y="40" width="20" height="20" as="geometry" />
        </mxCell>
        <mxCell id="iKnaXG9pOddWucdSrnOA-397" value="" style="shape=tableRow;horizontal=0;startSize=0;swimlaneHead=0;swimlaneBody=0;strokeColor=#82b366;top=0;left=0;bottom=0;right=0;collapsible=0;dropTarget=0;fillColor=#d5e8d4;points=[[0,0.5],[1,0.5]];portConstraint=eastwest;" vertex="1" parent="iKnaXG9pOddWucdSrnOA-396">
          <mxGeometry width="20" height="20" as="geometry" />
        </mxCell>
        <mxCell id="iKnaXG9pOddWucdSrnOA-398" value="" style="shape=partialRectangle;html=1;whiteSpace=wrap;connectable=0;strokeColor=#82b366;overflow=hidden;fillColor=#d5e8d4;top=0;left=0;bottom=0;right=0;pointerEvents=1;" vertex="1" parent="iKnaXG9pOddWucdSrnOA-397">
          <mxGeometry width="20" height="20" as="geometry">
            <mxRectangle width="20" height="20" as="alternateBounds" />
          </mxGeometry>
        </mxCell>
        <mxCell id="iKnaXG9pOddWucdSrnOA-399" value="" style="shape=partialRectangle;html=1;whiteSpace=wrap;connectable=0;strokeColor=#82b366;overflow=hidden;fillColor=#d5e8d4;top=0;left=0;bottom=0;right=0;pointerEvents=1;" vertex="1" parent="iKnaXG9pOddWucdSrnOA-367">
          <mxGeometry x="60" y="40" width="20" height="20" as="geometry">
            <mxRectangle width="40" height="40" as="alternateBounds" />
          </mxGeometry>
        </mxCell>
        <mxCell id="iKnaXG9pOddWucdSrnOA-400" value="" style="shape=table;startSize=0;container=1;collapsible=0;childLayout=tableLayout;fillColor=#d5e8d4;strokeColor=#82b366;" vertex="1" parent="iKnaXG9pOddWucdSrnOA-367">
          <mxGeometry x="60" y="40" width="20" height="20" as="geometry" />
        </mxCell>
        <mxCell id="iKnaXG9pOddWucdSrnOA-401" value="" style="shape=tableRow;horizontal=0;startSize=0;swimlaneHead=0;swimlaneBody=0;strokeColor=#82b366;top=0;left=0;bottom=0;right=0;collapsible=0;dropTarget=0;fillColor=#d5e8d4;points=[[0,0.5],[1,0.5]];portConstraint=eastwest;" vertex="1" parent="iKnaXG9pOddWucdSrnOA-400">
          <mxGeometry width="20" height="20" as="geometry" />
        </mxCell>
        <mxCell id="iKnaXG9pOddWucdSrnOA-402" value="" style="shape=partialRectangle;html=1;whiteSpace=wrap;connectable=0;strokeColor=#82b366;overflow=hidden;fillColor=#d5e8d4;top=0;left=0;bottom=0;right=0;pointerEvents=1;" vertex="1" parent="iKnaXG9pOddWucdSrnOA-401">
          <mxGeometry width="20" height="20" as="geometry">
            <mxRectangle width="20" height="20" as="alternateBounds" />
          </mxGeometry>
        </mxCell>
        <mxCell id="iKnaXG9pOddWucdSrnOA-410" value="" style="shape=table;startSize=0;container=1;collapsible=0;childLayout=tableLayout;fillColor=#d5e8d4;strokeColor=#82b366;" vertex="1" parent="iKnaXG9pOddWucdSrnOA-367">
          <mxGeometry x="40" width="20" height="20" as="geometry" />
        </mxCell>
        <mxCell id="iKnaXG9pOddWucdSrnOA-411" value="" style="shape=tableRow;horizontal=0;startSize=0;swimlaneHead=0;swimlaneBody=0;strokeColor=#82b366;top=0;left=0;bottom=0;right=0;collapsible=0;dropTarget=0;fillColor=#d5e8d4;points=[[0,0.5],[1,0.5]];portConstraint=eastwest;" vertex="1" parent="iKnaXG9pOddWucdSrnOA-410">
          <mxGeometry width="20" height="20" as="geometry" />
        </mxCell>
        <mxCell id="iKnaXG9pOddWucdSrnOA-412" value="" style="shape=partialRectangle;html=1;whiteSpace=wrap;connectable=0;strokeColor=#82b366;overflow=hidden;fillColor=#d5e8d4;top=0;left=0;bottom=0;right=0;pointerEvents=1;" vertex="1" parent="iKnaXG9pOddWucdSrnOA-411">
          <mxGeometry width="20" height="20" as="geometry">
            <mxRectangle width="20" height="20" as="alternateBounds" />
          </mxGeometry>
        </mxCell>
        <mxCell id="iKnaXG9pOddWucdSrnOA-413" value="" style="shape=partialRectangle;html=1;whiteSpace=wrap;connectable=0;strokeColor=#82b366;overflow=hidden;fillColor=#d5e8d4;top=0;left=0;bottom=0;right=0;pointerEvents=1;" vertex="1" parent="iKnaXG9pOddWucdSrnOA-367">
          <mxGeometry x="60" width="20" height="20" as="geometry">
            <mxRectangle width="40" height="40" as="alternateBounds" />
          </mxGeometry>
        </mxCell>
        <mxCell id="iKnaXG9pOddWucdSrnOA-414" value="" style="shape=table;startSize=0;container=1;collapsible=0;childLayout=tableLayout;fillColor=#d5e8d4;strokeColor=#82b366;" vertex="1" parent="iKnaXG9pOddWucdSrnOA-367">
          <mxGeometry x="60" width="20" height="20" as="geometry" />
        </mxCell>
        <mxCell id="iKnaXG9pOddWucdSrnOA-415" value="" style="shape=tableRow;horizontal=0;startSize=0;swimlaneHead=0;swimlaneBody=0;strokeColor=#82b366;top=0;left=0;bottom=0;right=0;collapsible=0;dropTarget=0;fillColor=#d5e8d4;points=[[0,0.5],[1,0.5]];portConstraint=eastwest;" vertex="1" parent="iKnaXG9pOddWucdSrnOA-414">
          <mxGeometry width="20" height="20" as="geometry" />
        </mxCell>
        <mxCell id="iKnaXG9pOddWucdSrnOA-416" value="" style="shape=partialRectangle;html=1;whiteSpace=wrap;connectable=0;strokeColor=#82b366;overflow=hidden;fillColor=#d5e8d4;top=0;left=0;bottom=0;right=0;pointerEvents=1;" vertex="1" parent="iKnaXG9pOddWucdSrnOA-415">
          <mxGeometry width="20" height="20" as="geometry">
            <mxRectangle width="20" height="20" as="alternateBounds" />
          </mxGeometry>
        </mxCell>
        <mxCell id="iKnaXG9pOddWucdSrnOA-417" value="" style="shape=table;startSize=0;container=1;collapsible=0;childLayout=tableLayout;fillColor=#d5e8d4;strokeColor=#82b366;" vertex="1" parent="iKnaXG9pOddWucdSrnOA-367">
          <mxGeometry x="40" y="20" width="20" height="20" as="geometry" />
        </mxCell>
        <mxCell id="iKnaXG9pOddWucdSrnOA-418" value="" style="shape=tableRow;horizontal=0;startSize=0;swimlaneHead=0;swimlaneBody=0;strokeColor=#82b366;top=0;left=0;bottom=0;right=0;collapsible=0;dropTarget=0;fillColor=#d5e8d4;points=[[0,0.5],[1,0.5]];portConstraint=eastwest;" vertex="1" parent="iKnaXG9pOddWucdSrnOA-417">
          <mxGeometry width="20" height="20" as="geometry" />
        </mxCell>
        <mxCell id="iKnaXG9pOddWucdSrnOA-419" value="V&lt;font style=&quot;font-size: 8px;&quot;&gt;A&lt;/font&gt;" style="shape=partialRectangle;html=1;whiteSpace=wrap;connectable=0;strokeColor=#82b366;overflow=hidden;fillColor=#d5e8d4;top=0;left=0;bottom=0;right=0;pointerEvents=1;" vertex="1" parent="iKnaXG9pOddWucdSrnOA-418">
          <mxGeometry width="20" height="20" as="geometry">
            <mxRectangle width="20" height="20" as="alternateBounds" />
          </mxGeometry>
        </mxCell>
        <mxCell id="iKnaXG9pOddWucdSrnOA-420" value="" style="shape=partialRectangle;html=1;whiteSpace=wrap;connectable=0;strokeColor=#82b366;overflow=hidden;fillColor=#d5e8d4;top=0;left=0;bottom=0;right=0;pointerEvents=1;" vertex="1" parent="iKnaXG9pOddWucdSrnOA-367">
          <mxGeometry x="60" y="20" width="20" height="20" as="geometry">
            <mxRectangle width="40" height="40" as="alternateBounds" />
          </mxGeometry>
        </mxCell>
        <mxCell id="iKnaXG9pOddWucdSrnOA-421" value="" style="shape=table;startSize=0;container=1;collapsible=0;childLayout=tableLayout;fillColor=#d5e8d4;strokeColor=#82b366;" vertex="1" parent="iKnaXG9pOddWucdSrnOA-367">
          <mxGeometry x="60" y="20" width="20" height="20" as="geometry" />
        </mxCell>
        <mxCell id="iKnaXG9pOddWucdSrnOA-422" value="" style="shape=tableRow;horizontal=0;startSize=0;swimlaneHead=0;swimlaneBody=0;strokeColor=#82b366;top=0;left=0;bottom=0;right=0;collapsible=0;dropTarget=0;fillColor=#d5e8d4;points=[[0,0.5],[1,0.5]];portConstraint=eastwest;" vertex="1" parent="iKnaXG9pOddWucdSrnOA-421">
          <mxGeometry width="20" height="20" as="geometry" />
        </mxCell>
        <mxCell id="iKnaXG9pOddWucdSrnOA-423" value="" style="shape=partialRectangle;html=1;whiteSpace=wrap;connectable=0;strokeColor=#82b366;overflow=hidden;fillColor=#d5e8d4;top=0;left=0;bottom=0;right=0;pointerEvents=1;" vertex="1" parent="iKnaXG9pOddWucdSrnOA-422">
          <mxGeometry width="20" height="20" as="geometry">
            <mxRectangle width="20" height="20" as="alternateBounds" />
          </mxGeometry>
        </mxCell>
        <mxCell id="iKnaXG9pOddWucdSrnOA-375" value="" style="shape=table;startSize=0;container=1;collapsible=0;childLayout=tableLayout;fillColor=#d5e8d4;strokeColor=#82b366;" vertex="1" parent="iKnaXG9pOddWucdSrnOA-367">
          <mxGeometry y="60" width="20" height="20" as="geometry" />
        </mxCell>
        <mxCell id="iKnaXG9pOddWucdSrnOA-376" value="" style="shape=tableRow;horizontal=0;startSize=0;swimlaneHead=0;swimlaneBody=0;strokeColor=#82b366;top=0;left=0;bottom=0;right=0;collapsible=0;dropTarget=0;fillColor=#d5e8d4;points=[[0,0.5],[1,0.5]];portConstraint=eastwest;" vertex="1" parent="iKnaXG9pOddWucdSrnOA-375">
          <mxGeometry width="20" height="20" as="geometry" />
        </mxCell>
        <mxCell id="iKnaXG9pOddWucdSrnOA-377" value="" style="shape=partialRectangle;html=1;whiteSpace=wrap;connectable=0;strokeColor=#82b366;overflow=hidden;fillColor=#d5e8d4;top=0;left=0;bottom=0;right=0;pointerEvents=1;" vertex="1" parent="iKnaXG9pOddWucdSrnOA-376">
          <mxGeometry width="20" height="20" as="geometry">
            <mxRectangle width="20" height="20" as="alternateBounds" />
          </mxGeometry>
        </mxCell>
        <mxCell id="iKnaXG9pOddWucdSrnOA-378" value="" style="shape=partialRectangle;html=1;whiteSpace=wrap;connectable=0;strokeColor=#82b366;overflow=hidden;fillColor=#d5e8d4;top=0;left=0;bottom=0;right=0;pointerEvents=1;" vertex="1" parent="iKnaXG9pOddWucdSrnOA-367">
          <mxGeometry x="20" y="60" width="20" height="20" as="geometry">
            <mxRectangle width="40" height="40" as="alternateBounds" />
          </mxGeometry>
        </mxCell>
        <mxCell id="iKnaXG9pOddWucdSrnOA-379" value="" style="shape=table;startSize=0;container=1;collapsible=0;childLayout=tableLayout;fillColor=#d5e8d4;strokeColor=#82b366;" vertex="1" parent="iKnaXG9pOddWucdSrnOA-367">
          <mxGeometry x="20" y="60" width="20" height="20" as="geometry" />
        </mxCell>
        <mxCell id="iKnaXG9pOddWucdSrnOA-380" value="" style="shape=tableRow;horizontal=0;startSize=0;swimlaneHead=0;swimlaneBody=0;strokeColor=#82b366;top=0;left=0;bottom=0;right=0;collapsible=0;dropTarget=0;fillColor=#d5e8d4;points=[[0,0.5],[1,0.5]];portConstraint=eastwest;" vertex="1" parent="iKnaXG9pOddWucdSrnOA-379">
          <mxGeometry width="20" height="20" as="geometry" />
        </mxCell>
        <mxCell id="iKnaXG9pOddWucdSrnOA-381" value="" style="shape=partialRectangle;html=1;whiteSpace=wrap;connectable=0;strokeColor=#82b366;overflow=hidden;fillColor=#d5e8d4;top=0;left=0;bottom=0;right=0;pointerEvents=1;" vertex="1" parent="iKnaXG9pOddWucdSrnOA-380">
          <mxGeometry width="20" height="20" as="geometry">
            <mxRectangle width="20" height="20" as="alternateBounds" />
          </mxGeometry>
        </mxCell>
        <mxCell id="iKnaXG9pOddWucdSrnOA-403" value="" style="shape=table;startSize=0;container=1;collapsible=0;childLayout=tableLayout;fillColor=#d5e8d4;strokeColor=#82b366;" vertex="1" parent="iKnaXG9pOddWucdSrnOA-367">
          <mxGeometry x="40" y="60" width="20" height="20" as="geometry" />
        </mxCell>
        <mxCell id="iKnaXG9pOddWucdSrnOA-404" value="" style="shape=tableRow;horizontal=0;startSize=0;swimlaneHead=0;swimlaneBody=0;strokeColor=#82b366;top=0;left=0;bottom=0;right=0;collapsible=0;dropTarget=0;fillColor=#d5e8d4;points=[[0,0.5],[1,0.5]];portConstraint=eastwest;" vertex="1" parent="iKnaXG9pOddWucdSrnOA-403">
          <mxGeometry width="20" height="20" as="geometry" />
        </mxCell>
        <mxCell id="iKnaXG9pOddWucdSrnOA-405" value="" style="shape=partialRectangle;html=1;whiteSpace=wrap;connectable=0;strokeColor=#82b366;overflow=hidden;fillColor=#d5e8d4;top=0;left=0;bottom=0;right=0;pointerEvents=1;" vertex="1" parent="iKnaXG9pOddWucdSrnOA-404">
          <mxGeometry width="20" height="20" as="geometry">
            <mxRectangle width="20" height="20" as="alternateBounds" />
          </mxGeometry>
        </mxCell>
        <mxCell id="iKnaXG9pOddWucdSrnOA-406" value="" style="shape=partialRectangle;html=1;whiteSpace=wrap;connectable=0;strokeColor=#82b366;overflow=hidden;fillColor=#d5e8d4;top=0;left=0;bottom=0;right=0;pointerEvents=1;" vertex="1" parent="iKnaXG9pOddWucdSrnOA-367">
          <mxGeometry x="60" y="60" width="20" height="20" as="geometry">
            <mxRectangle width="40" height="40" as="alternateBounds" />
          </mxGeometry>
        </mxCell>
        <mxCell id="iKnaXG9pOddWucdSrnOA-407" value="" style="shape=table;startSize=0;container=1;collapsible=0;childLayout=tableLayout;fillColor=#d5e8d4;strokeColor=#82b366;" vertex="1" parent="iKnaXG9pOddWucdSrnOA-367">
          <mxGeometry x="60" y="60" width="20" height="20" as="geometry" />
        </mxCell>
        <mxCell id="iKnaXG9pOddWucdSrnOA-408" value="" style="shape=tableRow;horizontal=0;startSize=0;swimlaneHead=0;swimlaneBody=0;strokeColor=#82b366;top=0;left=0;bottom=0;right=0;collapsible=0;dropTarget=0;fillColor=#d5e8d4;points=[[0,0.5],[1,0.5]];portConstraint=eastwest;" vertex="1" parent="iKnaXG9pOddWucdSrnOA-407">
          <mxGeometry width="20" height="20" as="geometry" />
        </mxCell>
        <mxCell id="iKnaXG9pOddWucdSrnOA-409" value="" style="shape=partialRectangle;html=1;whiteSpace=wrap;connectable=0;strokeColor=#82b366;overflow=hidden;fillColor=#d5e8d4;top=0;left=0;bottom=0;right=0;pointerEvents=1;" vertex="1" parent="iKnaXG9pOddWucdSrnOA-408">
          <mxGeometry width="20" height="20" as="geometry">
            <mxRectangle width="20" height="20" as="alternateBounds" />
          </mxGeometry>
        </mxCell>
        <mxCell id="iKnaXG9pOddWucdSrnOA-425" value="" style="edgeStyle=elbowEdgeStyle;elbow=horizontal;endArrow=classic;html=1;curved=0;rounded=0;endSize=8;startSize=8;entryX=0;entryY=1;entryDx=0;entryDy=0;entryPerimeter=0;" edge="1" parent="1" target="iKnaXG9pOddWucdSrnOA-219">
          <mxGeometry width="50" height="50" relative="1" as="geometry">
            <mxPoint x="110" y="1209" as="sourcePoint" />
            <mxPoint x="160" y="1159" as="targetPoint" />
          </mxGeometry>
        </mxCell>
        <mxCell id="iKnaXG9pOddWucdSrnOA-427" value="" style="edgeStyle=elbowEdgeStyle;elbow=horizontal;endArrow=classic;html=1;curved=0;rounded=0;endSize=8;startSize=8;entryX=-0.017;entryY=0.017;entryDx=0;entryDy=0;entryPerimeter=0;" edge="1" parent="1" target="iKnaXG9pOddWucdSrnOA-369">
          <mxGeometry width="50" height="50" relative="1" as="geometry">
            <mxPoint x="150" y="1210" as="sourcePoint" />
            <mxPoint x="200" y="1160" as="targetPoint" />
            <Array as="points">
              <mxPoint x="150" y="1270" />
            </Array>
          </mxGeometry>
        </mxCell>
        <mxCell id="iKnaXG9pOddWucdSrnOA-429" value="W&lt;font style=&quot;font-size: 7px;&quot;&gt;Q&lt;/font&gt;" style="text;html=1;align=center;verticalAlign=middle;whiteSpace=wrap;rounded=0;" vertex="1" parent="1">
          <mxGeometry x="130" y="1070" width="60" height="30" as="geometry" />
        </mxCell>
        <mxCell id="iKnaXG9pOddWucdSrnOA-430" value="W&lt;span style=&quot;font-size: 7px;&quot;&gt;K&lt;/span&gt;" style="text;html=1;align=center;verticalAlign=middle;whiteSpace=wrap;rounded=0;" vertex="1" parent="1">
          <mxGeometry x="130" y="1320" width="60" height="30" as="geometry" />
        </mxCell>
        <mxCell id="iKnaXG9pOddWucdSrnOA-431" value="W&lt;span style=&quot;font-size: 7px;&quot;&gt;V&lt;/span&gt;" style="text;html=1;align=center;verticalAlign=middle;whiteSpace=wrap;rounded=0;" vertex="1" parent="1">
          <mxGeometry x="130" y="1430" width="60" height="30" as="geometry" />
        </mxCell>
        <mxCell id="iKnaXG9pOddWucdSrnOA-432" value="" style="endArrow=classic;html=1;rounded=0;entryX=-0.026;entryY=-0.017;entryDx=0;entryDy=0;entryPerimeter=0;" edge="1" parent="1" target="iKnaXG9pOddWucdSrnOA-82">
          <mxGeometry width="50" height="50" relative="1" as="geometry">
            <mxPoint x="150" y="1209" as="sourcePoint" />
            <mxPoint x="70" y="1380" as="targetPoint" />
          </mxGeometry>
        </mxCell>
        <mxCell id="iKnaXG9pOddWucdSrnOA-433" value="" style="group" vertex="1" connectable="0" parent="1">
          <mxGeometry x="230" y="1169" width="40" height="80" as="geometry" />
        </mxCell>
        <mxCell id="iKnaXG9pOddWucdSrnOA-434" value="" style="shape=table;startSize=0;container=1;collapsible=0;childLayout=tableLayout;fillColor=#dae8fc;strokeColor=#6c8ebf;" vertex="1" parent="iKnaXG9pOddWucdSrnOA-433">
          <mxGeometry y="40" width="20" height="20" as="geometry" />
        </mxCell>
        <mxCell id="iKnaXG9pOddWucdSrnOA-435" value="" style="shape=tableRow;horizontal=0;startSize=0;swimlaneHead=0;swimlaneBody=0;strokeColor=inherit;top=0;left=0;bottom=0;right=0;collapsible=0;dropTarget=0;fillColor=none;points=[[0,0.5],[1,0.5]];portConstraint=eastwest;" vertex="1" parent="iKnaXG9pOddWucdSrnOA-434">
          <mxGeometry width="20" height="20" as="geometry" />
        </mxCell>
        <mxCell id="iKnaXG9pOddWucdSrnOA-436" value="" style="shape=partialRectangle;html=1;whiteSpace=wrap;connectable=0;strokeColor=inherit;overflow=hidden;fillColor=none;top=0;left=0;bottom=0;right=0;pointerEvents=1;" vertex="1" parent="iKnaXG9pOddWucdSrnOA-435">
          <mxGeometry width="20" height="20" as="geometry">
            <mxRectangle width="20" height="20" as="alternateBounds" />
          </mxGeometry>
        </mxCell>
        <mxCell id="iKnaXG9pOddWucdSrnOA-437" value="" style="shape=partialRectangle;html=1;whiteSpace=wrap;connectable=0;strokeColor=inherit;overflow=hidden;fillColor=none;top=0;left=0;bottom=0;right=0;pointerEvents=1;" vertex="1" parent="iKnaXG9pOddWucdSrnOA-433">
          <mxGeometry x="20" y="40" width="20" height="20" as="geometry">
            <mxRectangle width="40" height="40" as="alternateBounds" />
          </mxGeometry>
        </mxCell>
        <mxCell id="iKnaXG9pOddWucdSrnOA-438" value="" style="shape=table;startSize=0;container=1;collapsible=0;childLayout=tableLayout;fillColor=#dae8fc;strokeColor=#6c8ebf;" vertex="1" parent="iKnaXG9pOddWucdSrnOA-433">
          <mxGeometry x="20" y="40" width="20" height="20" as="geometry" />
        </mxCell>
        <mxCell id="iKnaXG9pOddWucdSrnOA-439" value="" style="shape=tableRow;horizontal=0;startSize=0;swimlaneHead=0;swimlaneBody=0;strokeColor=inherit;top=0;left=0;bottom=0;right=0;collapsible=0;dropTarget=0;fillColor=none;points=[[0,0.5],[1,0.5]];portConstraint=eastwest;" vertex="1" parent="iKnaXG9pOddWucdSrnOA-438">
          <mxGeometry width="20" height="20" as="geometry" />
        </mxCell>
        <mxCell id="iKnaXG9pOddWucdSrnOA-440" value="" style="shape=partialRectangle;html=1;whiteSpace=wrap;connectable=0;strokeColor=inherit;overflow=hidden;fillColor=none;top=0;left=0;bottom=0;right=0;pointerEvents=1;" vertex="1" parent="iKnaXG9pOddWucdSrnOA-439">
          <mxGeometry width="20" height="20" as="geometry">
            <mxRectangle width="20" height="20" as="alternateBounds" />
          </mxGeometry>
        </mxCell>
        <mxCell id="iKnaXG9pOddWucdSrnOA-441" value="" style="shape=table;startSize=0;container=1;collapsible=0;childLayout=tableLayout;fillColor=#dae8fc;strokeColor=#6c8ebf;" vertex="1" parent="iKnaXG9pOddWucdSrnOA-433">
          <mxGeometry y="60" width="20" height="20" as="geometry" />
        </mxCell>
        <mxCell id="iKnaXG9pOddWucdSrnOA-442" value="" style="shape=tableRow;horizontal=0;startSize=0;swimlaneHead=0;swimlaneBody=0;strokeColor=inherit;top=0;left=0;bottom=0;right=0;collapsible=0;dropTarget=0;fillColor=none;points=[[0,0.5],[1,0.5]];portConstraint=eastwest;" vertex="1" parent="iKnaXG9pOddWucdSrnOA-441">
          <mxGeometry width="20" height="20" as="geometry" />
        </mxCell>
        <mxCell id="iKnaXG9pOddWucdSrnOA-443" value="" style="shape=partialRectangle;html=1;whiteSpace=wrap;connectable=0;strokeColor=inherit;overflow=hidden;fillColor=none;top=0;left=0;bottom=0;right=0;pointerEvents=1;" vertex="1" parent="iKnaXG9pOddWucdSrnOA-442">
          <mxGeometry width="20" height="20" as="geometry">
            <mxRectangle width="20" height="20" as="alternateBounds" />
          </mxGeometry>
        </mxCell>
        <mxCell id="iKnaXG9pOddWucdSrnOA-444" value="" style="shape=partialRectangle;html=1;whiteSpace=wrap;connectable=0;strokeColor=inherit;overflow=hidden;fillColor=none;top=0;left=0;bottom=0;right=0;pointerEvents=1;" vertex="1" parent="iKnaXG9pOddWucdSrnOA-433">
          <mxGeometry x="20" y="60" width="20" height="20" as="geometry">
            <mxRectangle width="40" height="40" as="alternateBounds" />
          </mxGeometry>
        </mxCell>
        <mxCell id="iKnaXG9pOddWucdSrnOA-445" value="" style="shape=table;startSize=0;container=1;collapsible=0;childLayout=tableLayout;fillColor=#dae8fc;strokeColor=#6c8ebf;" vertex="1" parent="iKnaXG9pOddWucdSrnOA-433">
          <mxGeometry x="20" y="60" width="20" height="20" as="geometry" />
        </mxCell>
        <mxCell id="iKnaXG9pOddWucdSrnOA-446" value="" style="shape=tableRow;horizontal=0;startSize=0;swimlaneHead=0;swimlaneBody=0;strokeColor=inherit;top=0;left=0;bottom=0;right=0;collapsible=0;dropTarget=0;fillColor=none;points=[[0,0.5],[1,0.5]];portConstraint=eastwest;" vertex="1" parent="iKnaXG9pOddWucdSrnOA-445">
          <mxGeometry width="20" height="20" as="geometry" />
        </mxCell>
        <mxCell id="iKnaXG9pOddWucdSrnOA-447" value="" style="shape=partialRectangle;html=1;whiteSpace=wrap;connectable=0;strokeColor=inherit;overflow=hidden;fillColor=none;top=0;left=0;bottom=0;right=0;pointerEvents=1;" vertex="1" parent="iKnaXG9pOddWucdSrnOA-446">
          <mxGeometry width="20" height="20" as="geometry">
            <mxRectangle width="20" height="20" as="alternateBounds" />
          </mxGeometry>
        </mxCell>
        <mxCell id="iKnaXG9pOddWucdSrnOA-448" value="" style="shape=table;startSize=0;container=1;collapsible=0;childLayout=tableLayout;fillColor=#dae8fc;strokeColor=#6c8ebf;" vertex="1" parent="iKnaXG9pOddWucdSrnOA-433">
          <mxGeometry width="20" height="20" as="geometry" />
        </mxCell>
        <mxCell id="iKnaXG9pOddWucdSrnOA-449" value="" style="shape=tableRow;horizontal=0;startSize=0;swimlaneHead=0;swimlaneBody=0;strokeColor=inherit;top=0;left=0;bottom=0;right=0;collapsible=0;dropTarget=0;fillColor=none;points=[[0,0.5],[1,0.5]];portConstraint=eastwest;" vertex="1" parent="iKnaXG9pOddWucdSrnOA-448">
          <mxGeometry width="20" height="20" as="geometry" />
        </mxCell>
        <mxCell id="iKnaXG9pOddWucdSrnOA-450" value="" style="shape=partialRectangle;html=1;whiteSpace=wrap;connectable=0;strokeColor=inherit;overflow=hidden;fillColor=none;top=0;left=0;bottom=0;right=0;pointerEvents=1;" vertex="1" parent="iKnaXG9pOddWucdSrnOA-449">
          <mxGeometry width="20" height="20" as="geometry">
            <mxRectangle width="20" height="20" as="alternateBounds" />
          </mxGeometry>
        </mxCell>
        <mxCell id="iKnaXG9pOddWucdSrnOA-451" value="" style="shape=partialRectangle;html=1;whiteSpace=wrap;connectable=0;strokeColor=inherit;overflow=hidden;fillColor=none;top=0;left=0;bottom=0;right=0;pointerEvents=1;" vertex="1" parent="iKnaXG9pOddWucdSrnOA-433">
          <mxGeometry x="20" width="20" height="20" as="geometry">
            <mxRectangle width="40" height="40" as="alternateBounds" />
          </mxGeometry>
        </mxCell>
        <mxCell id="iKnaXG9pOddWucdSrnOA-452" value="" style="shape=table;startSize=0;container=1;collapsible=0;childLayout=tableLayout;fillColor=#dae8fc;strokeColor=#6c8ebf;" vertex="1" parent="iKnaXG9pOddWucdSrnOA-433">
          <mxGeometry x="20" width="20" height="20" as="geometry" />
        </mxCell>
        <mxCell id="iKnaXG9pOddWucdSrnOA-453" value="" style="shape=tableRow;horizontal=0;startSize=0;swimlaneHead=0;swimlaneBody=0;strokeColor=inherit;top=0;left=0;bottom=0;right=0;collapsible=0;dropTarget=0;fillColor=none;points=[[0,0.5],[1,0.5]];portConstraint=eastwest;" vertex="1" parent="iKnaXG9pOddWucdSrnOA-452">
          <mxGeometry width="20" height="20" as="geometry" />
        </mxCell>
        <mxCell id="iKnaXG9pOddWucdSrnOA-454" value="" style="shape=partialRectangle;html=1;whiteSpace=wrap;connectable=0;strokeColor=inherit;overflow=hidden;fillColor=none;top=0;left=0;bottom=0;right=0;pointerEvents=1;" vertex="1" parent="iKnaXG9pOddWucdSrnOA-453">
          <mxGeometry width="20" height="20" as="geometry">
            <mxRectangle width="20" height="20" as="alternateBounds" />
          </mxGeometry>
        </mxCell>
        <mxCell id="iKnaXG9pOddWucdSrnOA-455" value="" style="shape=table;startSize=0;container=1;collapsible=0;childLayout=tableLayout;fillColor=#dae8fc;strokeColor=#6c8ebf;" vertex="1" parent="iKnaXG9pOddWucdSrnOA-433">
          <mxGeometry y="20" width="20" height="20" as="geometry" />
        </mxCell>
        <mxCell id="iKnaXG9pOddWucdSrnOA-456" value="" style="shape=tableRow;horizontal=0;startSize=0;swimlaneHead=0;swimlaneBody=0;strokeColor=inherit;top=0;left=0;bottom=0;right=0;collapsible=0;dropTarget=0;fillColor=none;points=[[0,0.5],[1,0.5]];portConstraint=eastwest;" vertex="1" parent="iKnaXG9pOddWucdSrnOA-455">
          <mxGeometry width="20" height="20" as="geometry" />
        </mxCell>
        <mxCell id="iKnaXG9pOddWucdSrnOA-457" value="" style="shape=partialRectangle;html=1;whiteSpace=wrap;connectable=0;strokeColor=inherit;overflow=hidden;fillColor=none;top=0;left=0;bottom=0;right=0;pointerEvents=1;" vertex="1" parent="iKnaXG9pOddWucdSrnOA-456">
          <mxGeometry width="20" height="20" as="geometry">
            <mxRectangle width="20" height="20" as="alternateBounds" />
          </mxGeometry>
        </mxCell>
        <mxCell id="iKnaXG9pOddWucdSrnOA-458" value="" style="shape=partialRectangle;html=1;whiteSpace=wrap;connectable=0;strokeColor=inherit;overflow=hidden;fillColor=none;top=0;left=0;bottom=0;right=0;pointerEvents=1;" vertex="1" parent="iKnaXG9pOddWucdSrnOA-433">
          <mxGeometry x="20" y="20" width="20" height="20" as="geometry">
            <mxRectangle width="40" height="40" as="alternateBounds" />
          </mxGeometry>
        </mxCell>
        <mxCell id="iKnaXG9pOddWucdSrnOA-459" value="" style="shape=table;startSize=0;container=1;collapsible=0;childLayout=tableLayout;fillColor=#dae8fc;strokeColor=#6c8ebf;" vertex="1" parent="iKnaXG9pOddWucdSrnOA-433">
          <mxGeometry x="20" y="20" width="20" height="20" as="geometry" />
        </mxCell>
        <mxCell id="iKnaXG9pOddWucdSrnOA-460" value="" style="shape=tableRow;horizontal=0;startSize=0;swimlaneHead=0;swimlaneBody=0;strokeColor=inherit;top=0;left=0;bottom=0;right=0;collapsible=0;dropTarget=0;fillColor=none;points=[[0,0.5],[1,0.5]];portConstraint=eastwest;" vertex="1" parent="iKnaXG9pOddWucdSrnOA-459">
          <mxGeometry width="20" height="20" as="geometry" />
        </mxCell>
        <mxCell id="iKnaXG9pOddWucdSrnOA-461" value="B&#39;" style="shape=partialRectangle;html=1;whiteSpace=wrap;connectable=0;strokeColor=inherit;overflow=hidden;fillColor=none;top=0;left=0;bottom=0;right=0;pointerEvents=1;" vertex="1" parent="iKnaXG9pOddWucdSrnOA-460">
          <mxGeometry width="20" height="20" as="geometry">
            <mxRectangle width="20" height="20" as="alternateBounds" />
          </mxGeometry>
        </mxCell>
        <mxCell id="iKnaXG9pOddWucdSrnOA-462" value="" style="endArrow=classic;html=1;rounded=0;entryX=-0.003;entryY=1.007;entryDx=0;entryDy=0;entryPerimeter=0;" edge="1" parent="1" target="iKnaXG9pOddWucdSrnOA-456">
          <mxGeometry width="50" height="50" relative="1" as="geometry">
            <mxPoint x="210" y="1209" as="sourcePoint" />
            <mxPoint x="230" y="1210" as="targetPoint" />
          </mxGeometry>
        </mxCell>
        <mxCell id="iKnaXG9pOddWucdSrnOA-463" value="W&lt;span style=&quot;font-size: 7px;&quot;&gt;B&lt;/span&gt;" style="text;html=1;align=center;verticalAlign=middle;whiteSpace=wrap;rounded=0;" vertex="1" parent="1">
          <mxGeometry x="215" y="1190" width="10" height="9" as="geometry" />
        </mxCell>
        <mxCell id="iKnaXG9pOddWucdSrnOA-467" value="&lt;span style=&quot;background-color: transparent; color: light-dark(rgb(0, 0, 0), rgb(255, 255, 255));&quot;&gt;&lt;font style=&quot;font-size: 18px;&quot;&gt;Softmax 注意力&lt;/font&gt;&lt;/span&gt;" style="rounded=0;whiteSpace=wrap;html=1;align=center;verticalAlign=middle;horizontal=0;" vertex="1" parent="1">
          <mxGeometry x="340" y="1230" width="30" height="178" as="geometry" />
        </mxCell>
        <mxCell id="iKnaXG9pOddWucdSrnOA-473" value="&lt;span style=&quot;background-color: transparent; color: light-dark(rgb(0, 0, 0), rgb(255, 255, 255));&quot;&gt;&lt;font style=&quot;font-size: 18px;&quot;&gt;Softmax 注意力&lt;/font&gt;&lt;/span&gt;" style="rounded=0;whiteSpace=wrap;html=1;align=center;verticalAlign=middle;horizontal=0;" vertex="1" parent="1">
          <mxGeometry x="340" y="1049" width="30" height="150" as="geometry" />
        </mxCell>
        <mxCell id="iKnaXG9pOddWucdSrnOA-534" value="" style="verticalLabelPosition=bottom;verticalAlign=top;html=1;shape=mxgraph.flowchart.or;" vertex="1" parent="1">
          <mxGeometry x="406" y="1304" width="30" height="30" as="geometry" />
        </mxCell>
        <mxCell id="iKnaXG9pOddWucdSrnOA-535" value="" style="endArrow=classic;html=1;rounded=0;entryX=0.5;entryY=1;entryDx=0;entryDy=0;entryPerimeter=0;" edge="1" parent="1" target="iKnaXG9pOddWucdSrnOA-547">
          <mxGeometry width="50" height="50" relative="1" as="geometry">
            <mxPoint x="436" y="1318.5" as="sourcePoint" />
            <mxPoint x="490" y="1319" as="targetPoint" />
            <Array as="points">
              <mxPoint x="480" y="1319" />
            </Array>
          </mxGeometry>
        </mxCell>
        <mxCell id="iKnaXG9pOddWucdSrnOA-538" value="" style="endArrow=classic;html=1;rounded=0;entryX=-0.052;entryY=0.676;entryDx=0;entryDy=0;entryPerimeter=0;exitX=1.05;exitY=1.05;exitDx=0;exitDy=0;exitPerimeter=0;" edge="1" parent="1" source="iKnaXG9pOddWucdSrnOA-365" target="iKnaXG9pOddWucdSrnOA-467">
          <mxGeometry width="50" height="50" relative="1" as="geometry">
            <mxPoint x="270" y="1331" as="sourcePoint" />
            <mxPoint x="320" y="1281" as="targetPoint" />
          </mxGeometry>
        </mxCell>
        <mxCell id="iKnaXG9pOddWucdSrnOA-539" value="" style="endArrow=classic;html=1;rounded=0;entryX=0.033;entryY=0.108;entryDx=0;entryDy=0;entryPerimeter=0;" edge="1" parent="1" target="iKnaXG9pOddWucdSrnOA-467">
          <mxGeometry width="50" height="50" relative="1" as="geometry">
            <mxPoint x="270" y="1249" as="sourcePoint" />
            <mxPoint x="341.86" y="1248.0880000000002" as="targetPoint" />
          </mxGeometry>
        </mxCell>
        <mxCell id="iKnaXG9pOddWucdSrnOA-540" style="edgeStyle=orthogonalEdgeStyle;rounded=0;orthogonalLoop=1;jettySize=auto;html=1;exitX=1;exitY=1;exitDx=0;exitDy=0;entryX=0.5;entryY=1;entryDx=0;entryDy=0;entryPerimeter=0;" edge="1" parent="1" source="iKnaXG9pOddWucdSrnOA-421" target="iKnaXG9pOddWucdSrnOA-534">
          <mxGeometry relative="1" as="geometry">
            <Array as="points">
              <mxPoint x="420" y="1459" />
              <mxPoint x="420" y="1339" />
            </Array>
          </mxGeometry>
        </mxCell>
        <mxCell id="iKnaXG9pOddWucdSrnOA-541" style="edgeStyle=orthogonalEdgeStyle;rounded=0;orthogonalLoop=1;jettySize=auto;html=1;entryX=0;entryY=0.5;entryDx=0;entryDy=0;entryPerimeter=0;" edge="1" parent="1" source="iKnaXG9pOddWucdSrnOA-467" target="iKnaXG9pOddWucdSrnOA-534">
          <mxGeometry relative="1" as="geometry" />
        </mxCell>
        <mxCell id="iKnaXG9pOddWucdSrnOA-543" value="&lt;span style=&quot;color: rgb(0, 0, 0); font-family: Helvetica; font-size: 12px; font-style: normal; font-variant-ligatures: normal; font-variant-caps: normal; font-weight: 400; letter-spacing: normal; orphans: 2; text-align: center; text-indent: 0px; text-transform: none; widows: 2; word-spacing: 0px; -webkit-text-stroke-width: 0px; white-space: normal; background-color: rgb(236, 236, 236); text-decoration-thickness: initial; text-decoration-style: initial; text-decoration-color: initial; float: none; display: inline !important;&quot;&gt;V&#39;&lt;/span&gt;" style="text;whiteSpace=wrap;html=1;" vertex="1" parent="1">
          <mxGeometry x="452" y="1293" width="40" height="40" as="geometry" />
        </mxCell>
        <mxCell id="iKnaXG9pOddWucdSrnOA-545" value="" style="endArrow=classic;html=1;rounded=0;entryX=0.022;entryY=0.34;entryDx=0;entryDy=0;entryPerimeter=0;" edge="1" parent="1" target="iKnaXG9pOddWucdSrnOA-473">
          <mxGeometry width="50" height="50" relative="1" as="geometry">
            <mxPoint x="270" y="1100" as="sourcePoint" />
            <mxPoint x="339" y="1099" as="targetPoint" />
          </mxGeometry>
        </mxCell>
        <mxCell id="iKnaXG9pOddWucdSrnOA-546" value="" style="endArrow=classic;html=1;rounded=0;entryX=0.022;entryY=0.34;entryDx=0;entryDy=0;entryPerimeter=0;" edge="1" parent="1">
          <mxGeometry width="50" height="50" relative="1" as="geometry">
            <mxPoint x="270" y="1189" as="sourcePoint" />
            <mxPoint x="341" y="1189" as="targetPoint" />
          </mxGeometry>
        </mxCell>
        <mxCell id="iKnaXG9pOddWucdSrnOA-547" value="" style="verticalLabelPosition=bottom;verticalAlign=top;html=1;shape=mxgraph.flowchart.or;" vertex="1" parent="1">
          <mxGeometry x="466" y="1109" width="30" height="30" as="geometry" />
        </mxCell>
        <mxCell id="iKnaXG9pOddWucdSrnOA-548" style="edgeStyle=orthogonalEdgeStyle;rounded=0;orthogonalLoop=1;jettySize=auto;html=1;entryX=0;entryY=0.5;entryDx=0;entryDy=0;entryPerimeter=0;" edge="1" parent="1" source="iKnaXG9pOddWucdSrnOA-473" target="iKnaXG9pOddWucdSrnOA-547">
          <mxGeometry relative="1" as="geometry" />
        </mxCell>
        <mxCell id="iKnaXG9pOddWucdSrnOA-549" value="" style="group;fillColor=#fad9d5;strokeColor=#ae4132;" vertex="1" connectable="0" parent="1">
          <mxGeometry x="540" y="1082" width="80" height="80" as="geometry" />
        </mxCell>
        <mxCell id="iKnaXG9pOddWucdSrnOA-550" value="" style="shape=table;startSize=0;container=1;collapsible=0;childLayout=tableLayout;fillColor=#fad9d5;strokeColor=#ae4132;" vertex="1" parent="iKnaXG9pOddWucdSrnOA-549">
          <mxGeometry y="40" width="20" height="20" as="geometry" />
        </mxCell>
        <mxCell id="iKnaXG9pOddWucdSrnOA-551" value="" style="shape=tableRow;horizontal=0;startSize=0;swimlaneHead=0;swimlaneBody=0;strokeColor=#ae4132;top=0;left=0;bottom=0;right=0;collapsible=0;dropTarget=0;fillColor=#fad9d5;points=[[0,0.5],[1,0.5]];portConstraint=eastwest;" vertex="1" parent="iKnaXG9pOddWucdSrnOA-550">
          <mxGeometry width="20" height="20" as="geometry" />
        </mxCell>
        <mxCell id="iKnaXG9pOddWucdSrnOA-552" value="" style="shape=partialRectangle;html=1;whiteSpace=wrap;connectable=0;strokeColor=#ae4132;overflow=hidden;fillColor=#fad9d5;top=0;left=0;bottom=0;right=0;pointerEvents=1;" vertex="1" parent="iKnaXG9pOddWucdSrnOA-551">
          <mxGeometry width="20" height="20" as="geometry">
            <mxRectangle width="20" height="20" as="alternateBounds" />
          </mxGeometry>
        </mxCell>
        <mxCell id="iKnaXG9pOddWucdSrnOA-553" value="" style="shape=partialRectangle;html=1;whiteSpace=wrap;connectable=0;strokeColor=#ae4132;overflow=hidden;fillColor=#fad9d5;top=0;left=0;bottom=0;right=0;pointerEvents=1;" vertex="1" parent="iKnaXG9pOddWucdSrnOA-549">
          <mxGeometry x="20" y="40" width="20" height="20" as="geometry">
            <mxRectangle width="40" height="40" as="alternateBounds" />
          </mxGeometry>
        </mxCell>
        <mxCell id="iKnaXG9pOddWucdSrnOA-554" value="" style="shape=table;startSize=0;container=1;collapsible=0;childLayout=tableLayout;fillColor=#fad9d5;strokeColor=#ae4132;" vertex="1" parent="iKnaXG9pOddWucdSrnOA-549">
          <mxGeometry x="20" y="40" width="20" height="20" as="geometry" />
        </mxCell>
        <mxCell id="iKnaXG9pOddWucdSrnOA-555" value="" style="shape=tableRow;horizontal=0;startSize=0;swimlaneHead=0;swimlaneBody=0;strokeColor=#ae4132;top=0;left=0;bottom=0;right=0;collapsible=0;dropTarget=0;fillColor=#fad9d5;points=[[0,0.5],[1,0.5]];portConstraint=eastwest;" vertex="1" parent="iKnaXG9pOddWucdSrnOA-554">
          <mxGeometry width="20" height="20" as="geometry" />
        </mxCell>
        <mxCell id="iKnaXG9pOddWucdSrnOA-556" value="" style="shape=partialRectangle;html=1;whiteSpace=wrap;connectable=0;strokeColor=#ae4132;overflow=hidden;fillColor=#fad9d5;top=0;left=0;bottom=0;right=0;pointerEvents=1;" vertex="1" parent="iKnaXG9pOddWucdSrnOA-555">
          <mxGeometry width="20" height="20" as="geometry">
            <mxRectangle width="20" height="20" as="alternateBounds" />
          </mxGeometry>
        </mxCell>
        <mxCell id="iKnaXG9pOddWucdSrnOA-557" value="" style="shape=table;startSize=0;container=1;collapsible=0;childLayout=tableLayout;fillColor=#fad9d5;strokeColor=#ae4132;" vertex="1" parent="iKnaXG9pOddWucdSrnOA-549">
          <mxGeometry y="60" width="20" height="20" as="geometry" />
        </mxCell>
        <mxCell id="iKnaXG9pOddWucdSrnOA-558" value="" style="shape=tableRow;horizontal=0;startSize=0;swimlaneHead=0;swimlaneBody=0;strokeColor=#ae4132;top=0;left=0;bottom=0;right=0;collapsible=0;dropTarget=0;fillColor=#fad9d5;points=[[0,0.5],[1,0.5]];portConstraint=eastwest;" vertex="1" parent="iKnaXG9pOddWucdSrnOA-557">
          <mxGeometry width="20" height="20" as="geometry" />
        </mxCell>
        <mxCell id="iKnaXG9pOddWucdSrnOA-559" value="" style="shape=partialRectangle;html=1;whiteSpace=wrap;connectable=0;strokeColor=#ae4132;overflow=hidden;fillColor=#fad9d5;top=0;left=0;bottom=0;right=0;pointerEvents=1;" vertex="1" parent="iKnaXG9pOddWucdSrnOA-558">
          <mxGeometry width="20" height="20" as="geometry">
            <mxRectangle width="20" height="20" as="alternateBounds" />
          </mxGeometry>
        </mxCell>
        <mxCell id="iKnaXG9pOddWucdSrnOA-560" value="" style="shape=partialRectangle;html=1;whiteSpace=wrap;connectable=0;strokeColor=#ae4132;overflow=hidden;fillColor=#fad9d5;top=0;left=0;bottom=0;right=0;pointerEvents=1;" vertex="1" parent="iKnaXG9pOddWucdSrnOA-549">
          <mxGeometry x="20" y="60" width="20" height="20" as="geometry">
            <mxRectangle width="40" height="40" as="alternateBounds" />
          </mxGeometry>
        </mxCell>
        <mxCell id="iKnaXG9pOddWucdSrnOA-561" value="" style="shape=table;startSize=0;container=1;collapsible=0;childLayout=tableLayout;fillColor=#fad9d5;strokeColor=#ae4132;" vertex="1" parent="iKnaXG9pOddWucdSrnOA-549">
          <mxGeometry x="20" y="60" width="20" height="20" as="geometry" />
        </mxCell>
        <mxCell id="iKnaXG9pOddWucdSrnOA-562" value="" style="shape=tableRow;horizontal=0;startSize=0;swimlaneHead=0;swimlaneBody=0;strokeColor=#ae4132;top=0;left=0;bottom=0;right=0;collapsible=0;dropTarget=0;fillColor=#fad9d5;points=[[0,0.5],[1,0.5]];portConstraint=eastwest;" vertex="1" parent="iKnaXG9pOddWucdSrnOA-561">
          <mxGeometry width="20" height="20" as="geometry" />
        </mxCell>
        <mxCell id="iKnaXG9pOddWucdSrnOA-563" value="" style="shape=partialRectangle;html=1;whiteSpace=wrap;connectable=0;strokeColor=#ae4132;overflow=hidden;fillColor=#fad9d5;top=0;left=0;bottom=0;right=0;pointerEvents=1;" vertex="1" parent="iKnaXG9pOddWucdSrnOA-562">
          <mxGeometry width="20" height="20" as="geometry">
            <mxRectangle width="20" height="20" as="alternateBounds" />
          </mxGeometry>
        </mxCell>
        <mxCell id="iKnaXG9pOddWucdSrnOA-564" value="" style="shape=table;startSize=0;container=1;collapsible=0;childLayout=tableLayout;fillColor=#fad9d5;strokeColor=#ae4132;" vertex="1" parent="iKnaXG9pOddWucdSrnOA-549">
          <mxGeometry width="20" height="20" as="geometry" />
        </mxCell>
        <mxCell id="iKnaXG9pOddWucdSrnOA-565" value="" style="shape=tableRow;horizontal=0;startSize=0;swimlaneHead=0;swimlaneBody=0;strokeColor=#ae4132;top=0;left=0;bottom=0;right=0;collapsible=0;dropTarget=0;fillColor=#fad9d5;points=[[0,0.5],[1,0.5]];portConstraint=eastwest;" vertex="1" parent="iKnaXG9pOddWucdSrnOA-564">
          <mxGeometry width="20" height="20" as="geometry" />
        </mxCell>
        <mxCell id="iKnaXG9pOddWucdSrnOA-566" value="" style="shape=partialRectangle;html=1;whiteSpace=wrap;connectable=0;strokeColor=#ae4132;overflow=hidden;fillColor=#fad9d5;top=0;left=0;bottom=0;right=0;pointerEvents=1;" vertex="1" parent="iKnaXG9pOddWucdSrnOA-565">
          <mxGeometry width="20" height="20" as="geometry">
            <mxRectangle width="20" height="20" as="alternateBounds" />
          </mxGeometry>
        </mxCell>
        <mxCell id="iKnaXG9pOddWucdSrnOA-567" value="" style="shape=partialRectangle;html=1;whiteSpace=wrap;connectable=0;strokeColor=#ae4132;overflow=hidden;fillColor=#fad9d5;top=0;left=0;bottom=0;right=0;pointerEvents=1;" vertex="1" parent="iKnaXG9pOddWucdSrnOA-549">
          <mxGeometry x="20" width="20" height="20" as="geometry">
            <mxRectangle width="40" height="40" as="alternateBounds" />
          </mxGeometry>
        </mxCell>
        <mxCell id="iKnaXG9pOddWucdSrnOA-568" value="" style="shape=table;startSize=0;container=1;collapsible=0;childLayout=tableLayout;fillColor=#fad9d5;strokeColor=#ae4132;" vertex="1" parent="iKnaXG9pOddWucdSrnOA-549">
          <mxGeometry x="20" width="20" height="20" as="geometry" />
        </mxCell>
        <mxCell id="iKnaXG9pOddWucdSrnOA-569" value="" style="shape=tableRow;horizontal=0;startSize=0;swimlaneHead=0;swimlaneBody=0;strokeColor=#ae4132;top=0;left=0;bottom=0;right=0;collapsible=0;dropTarget=0;fillColor=#fad9d5;points=[[0,0.5],[1,0.5]];portConstraint=eastwest;" vertex="1" parent="iKnaXG9pOddWucdSrnOA-568">
          <mxGeometry width="20" height="20" as="geometry" />
        </mxCell>
        <mxCell id="iKnaXG9pOddWucdSrnOA-570" value="" style="shape=partialRectangle;html=1;whiteSpace=wrap;connectable=0;strokeColor=#ae4132;overflow=hidden;fillColor=#fad9d5;top=0;left=0;bottom=0;right=0;pointerEvents=1;" vertex="1" parent="iKnaXG9pOddWucdSrnOA-569">
          <mxGeometry width="20" height="20" as="geometry">
            <mxRectangle width="20" height="20" as="alternateBounds" />
          </mxGeometry>
        </mxCell>
        <mxCell id="iKnaXG9pOddWucdSrnOA-571" value="" style="shape=table;startSize=0;container=1;collapsible=0;childLayout=tableLayout;fillColor=#fad9d5;strokeColor=#ae4132;" vertex="1" parent="iKnaXG9pOddWucdSrnOA-549">
          <mxGeometry y="20" width="20" height="20" as="geometry" />
        </mxCell>
        <mxCell id="iKnaXG9pOddWucdSrnOA-572" value="" style="shape=tableRow;horizontal=0;startSize=0;swimlaneHead=0;swimlaneBody=0;strokeColor=#ae4132;top=0;left=0;bottom=0;right=0;collapsible=0;dropTarget=0;fillColor=#fad9d5;points=[[0,0.5],[1,0.5]];portConstraint=eastwest;" vertex="1" parent="iKnaXG9pOddWucdSrnOA-571">
          <mxGeometry width="20" height="20" as="geometry" />
        </mxCell>
        <mxCell id="iKnaXG9pOddWucdSrnOA-573" value="" style="shape=partialRectangle;html=1;whiteSpace=wrap;connectable=0;strokeColor=#ae4132;overflow=hidden;fillColor=#fad9d5;top=0;left=0;bottom=0;right=0;pointerEvents=1;" vertex="1" parent="iKnaXG9pOddWucdSrnOA-572">
          <mxGeometry width="20" height="20" as="geometry">
            <mxRectangle width="20" height="20" as="alternateBounds" />
          </mxGeometry>
        </mxCell>
        <mxCell id="iKnaXG9pOddWucdSrnOA-574" value="" style="shape=partialRectangle;html=1;whiteSpace=wrap;connectable=0;strokeColor=#ae4132;overflow=hidden;fillColor=#fad9d5;top=0;left=0;bottom=0;right=0;pointerEvents=1;" vertex="1" parent="iKnaXG9pOddWucdSrnOA-549">
          <mxGeometry x="20" y="20" width="20" height="20" as="geometry">
            <mxRectangle width="40" height="40" as="alternateBounds" />
          </mxGeometry>
        </mxCell>
        <mxCell id="iKnaXG9pOddWucdSrnOA-575" value="" style="shape=table;startSize=0;container=1;collapsible=0;childLayout=tableLayout;fillColor=#fad9d5;strokeColor=#ae4132;" vertex="1" parent="iKnaXG9pOddWucdSrnOA-549">
          <mxGeometry x="20" y="20" width="20" height="20" as="geometry" />
        </mxCell>
        <mxCell id="iKnaXG9pOddWucdSrnOA-576" value="" style="shape=tableRow;horizontal=0;startSize=0;swimlaneHead=0;swimlaneBody=0;strokeColor=#ae4132;top=0;left=0;bottom=0;right=0;collapsible=0;dropTarget=0;fillColor=#fad9d5;points=[[0,0.5],[1,0.5]];portConstraint=eastwest;" vertex="1" parent="iKnaXG9pOddWucdSrnOA-575">
          <mxGeometry width="20" height="20" as="geometry" />
        </mxCell>
        <mxCell id="iKnaXG9pOddWucdSrnOA-577" value="A&#39;" style="shape=partialRectangle;html=1;whiteSpace=wrap;connectable=0;strokeColor=#ae4132;overflow=hidden;fillColor=#fad9d5;top=0;left=0;bottom=0;right=0;pointerEvents=1;" vertex="1" parent="iKnaXG9pOddWucdSrnOA-576">
          <mxGeometry width="20" height="20" as="geometry">
            <mxRectangle width="20" height="20" as="alternateBounds" />
          </mxGeometry>
        </mxCell>
        <mxCell id="iKnaXG9pOddWucdSrnOA-578" value="" style="shape=table;startSize=0;container=1;collapsible=0;childLayout=tableLayout;fillColor=#fad9d5;strokeColor=#ae4132;" vertex="1" parent="iKnaXG9pOddWucdSrnOA-549">
          <mxGeometry x="40" y="40" width="20" height="20" as="geometry" />
        </mxCell>
        <mxCell id="iKnaXG9pOddWucdSrnOA-579" value="" style="shape=tableRow;horizontal=0;startSize=0;swimlaneHead=0;swimlaneBody=0;strokeColor=#ae4132;top=0;left=0;bottom=0;right=0;collapsible=0;dropTarget=0;fillColor=#fad9d5;points=[[0,0.5],[1,0.5]];portConstraint=eastwest;" vertex="1" parent="iKnaXG9pOddWucdSrnOA-578">
          <mxGeometry width="20" height="20" as="geometry" />
        </mxCell>
        <mxCell id="iKnaXG9pOddWucdSrnOA-580" value="" style="shape=partialRectangle;html=1;whiteSpace=wrap;connectable=0;strokeColor=#ae4132;overflow=hidden;fillColor=#fad9d5;top=0;left=0;bottom=0;right=0;pointerEvents=1;" vertex="1" parent="iKnaXG9pOddWucdSrnOA-579">
          <mxGeometry width="20" height="20" as="geometry">
            <mxRectangle width="20" height="20" as="alternateBounds" />
          </mxGeometry>
        </mxCell>
        <mxCell id="iKnaXG9pOddWucdSrnOA-581" value="" style="shape=partialRectangle;html=1;whiteSpace=wrap;connectable=0;strokeColor=#ae4132;overflow=hidden;fillColor=#fad9d5;top=0;left=0;bottom=0;right=0;pointerEvents=1;" vertex="1" parent="iKnaXG9pOddWucdSrnOA-549">
          <mxGeometry x="60" y="40" width="20" height="20" as="geometry">
            <mxRectangle width="40" height="40" as="alternateBounds" />
          </mxGeometry>
        </mxCell>
        <mxCell id="iKnaXG9pOddWucdSrnOA-582" value="" style="shape=table;startSize=0;container=1;collapsible=0;childLayout=tableLayout;fillColor=#fad9d5;strokeColor=#ae4132;" vertex="1" parent="iKnaXG9pOddWucdSrnOA-549">
          <mxGeometry x="60" y="40" width="20" height="20" as="geometry" />
        </mxCell>
        <mxCell id="iKnaXG9pOddWucdSrnOA-583" value="" style="shape=tableRow;horizontal=0;startSize=0;swimlaneHead=0;swimlaneBody=0;strokeColor=#ae4132;top=0;left=0;bottom=0;right=0;collapsible=0;dropTarget=0;fillColor=#fad9d5;points=[[0,0.5],[1,0.5]];portConstraint=eastwest;" vertex="1" parent="iKnaXG9pOddWucdSrnOA-582">
          <mxGeometry width="20" height="20" as="geometry" />
        </mxCell>
        <mxCell id="iKnaXG9pOddWucdSrnOA-584" value="" style="shape=partialRectangle;html=1;whiteSpace=wrap;connectable=0;strokeColor=#ae4132;overflow=hidden;fillColor=#fad9d5;top=0;left=0;bottom=0;right=0;pointerEvents=1;" vertex="1" parent="iKnaXG9pOddWucdSrnOA-583">
          <mxGeometry width="20" height="20" as="geometry">
            <mxRectangle width="20" height="20" as="alternateBounds" />
          </mxGeometry>
        </mxCell>
        <mxCell id="iKnaXG9pOddWucdSrnOA-585" value="" style="shape=table;startSize=0;container=1;collapsible=0;childLayout=tableLayout;fillColor=#fad9d5;strokeColor=#ae4132;" vertex="1" parent="iKnaXG9pOddWucdSrnOA-549">
          <mxGeometry x="40" y="60" width="20" height="20" as="geometry" />
        </mxCell>
        <mxCell id="iKnaXG9pOddWucdSrnOA-586" value="" style="shape=tableRow;horizontal=0;startSize=0;swimlaneHead=0;swimlaneBody=0;strokeColor=#ae4132;top=0;left=0;bottom=0;right=0;collapsible=0;dropTarget=0;fillColor=#fad9d5;points=[[0,0.5],[1,0.5]];portConstraint=eastwest;" vertex="1" parent="iKnaXG9pOddWucdSrnOA-585">
          <mxGeometry width="20" height="20" as="geometry" />
        </mxCell>
        <mxCell id="iKnaXG9pOddWucdSrnOA-587" value="" style="shape=partialRectangle;html=1;whiteSpace=wrap;connectable=0;strokeColor=#ae4132;overflow=hidden;fillColor=#fad9d5;top=0;left=0;bottom=0;right=0;pointerEvents=1;" vertex="1" parent="iKnaXG9pOddWucdSrnOA-586">
          <mxGeometry width="20" height="20" as="geometry">
            <mxRectangle width="20" height="20" as="alternateBounds" />
          </mxGeometry>
        </mxCell>
        <mxCell id="iKnaXG9pOddWucdSrnOA-588" value="" style="shape=partialRectangle;html=1;whiteSpace=wrap;connectable=0;strokeColor=#ae4132;overflow=hidden;fillColor=#fad9d5;top=0;left=0;bottom=0;right=0;pointerEvents=1;" vertex="1" parent="iKnaXG9pOddWucdSrnOA-549">
          <mxGeometry x="60" y="60" width="20" height="20" as="geometry">
            <mxRectangle width="40" height="40" as="alternateBounds" />
          </mxGeometry>
        </mxCell>
        <mxCell id="iKnaXG9pOddWucdSrnOA-589" value="" style="shape=table;startSize=0;container=1;collapsible=0;childLayout=tableLayout;fillColor=#fad9d5;strokeColor=#ae4132;" vertex="1" parent="iKnaXG9pOddWucdSrnOA-549">
          <mxGeometry x="60" y="60" width="20" height="20" as="geometry" />
        </mxCell>
        <mxCell id="iKnaXG9pOddWucdSrnOA-590" value="" style="shape=tableRow;horizontal=0;startSize=0;swimlaneHead=0;swimlaneBody=0;strokeColor=#ae4132;top=0;left=0;bottom=0;right=0;collapsible=0;dropTarget=0;fillColor=#fad9d5;points=[[0,0.5],[1,0.5]];portConstraint=eastwest;" vertex="1" parent="iKnaXG9pOddWucdSrnOA-589">
          <mxGeometry width="20" height="20" as="geometry" />
        </mxCell>
        <mxCell id="iKnaXG9pOddWucdSrnOA-591" value="" style="shape=partialRectangle;html=1;whiteSpace=wrap;connectable=0;strokeColor=#ae4132;overflow=hidden;fillColor=#fad9d5;top=0;left=0;bottom=0;right=0;pointerEvents=1;" vertex="1" parent="iKnaXG9pOddWucdSrnOA-590">
          <mxGeometry width="20" height="20" as="geometry">
            <mxRectangle width="20" height="20" as="alternateBounds" />
          </mxGeometry>
        </mxCell>
        <mxCell id="iKnaXG9pOddWucdSrnOA-592" value="" style="shape=table;startSize=0;container=1;collapsible=0;childLayout=tableLayout;fillColor=#fad9d5;strokeColor=#ae4132;" vertex="1" parent="iKnaXG9pOddWucdSrnOA-549">
          <mxGeometry x="40" width="20" height="20" as="geometry" />
        </mxCell>
        <mxCell id="iKnaXG9pOddWucdSrnOA-593" value="" style="shape=tableRow;horizontal=0;startSize=0;swimlaneHead=0;swimlaneBody=0;strokeColor=#ae4132;top=0;left=0;bottom=0;right=0;collapsible=0;dropTarget=0;fillColor=#fad9d5;points=[[0,0.5],[1,0.5]];portConstraint=eastwest;" vertex="1" parent="iKnaXG9pOddWucdSrnOA-592">
          <mxGeometry width="20" height="20" as="geometry" />
        </mxCell>
        <mxCell id="iKnaXG9pOddWucdSrnOA-594" value="" style="shape=partialRectangle;html=1;whiteSpace=wrap;connectable=0;strokeColor=#ae4132;overflow=hidden;fillColor=#fad9d5;top=0;left=0;bottom=0;right=0;pointerEvents=1;" vertex="1" parent="iKnaXG9pOddWucdSrnOA-593">
          <mxGeometry width="20" height="20" as="geometry">
            <mxRectangle width="20" height="20" as="alternateBounds" />
          </mxGeometry>
        </mxCell>
        <mxCell id="iKnaXG9pOddWucdSrnOA-595" value="" style="shape=partialRectangle;html=1;whiteSpace=wrap;connectable=0;strokeColor=#ae4132;overflow=hidden;fillColor=#fad9d5;top=0;left=0;bottom=0;right=0;pointerEvents=1;" vertex="1" parent="iKnaXG9pOddWucdSrnOA-549">
          <mxGeometry x="60" width="20" height="20" as="geometry">
            <mxRectangle width="40" height="40" as="alternateBounds" />
          </mxGeometry>
        </mxCell>
        <mxCell id="iKnaXG9pOddWucdSrnOA-596" value="" style="shape=table;startSize=0;container=1;collapsible=0;childLayout=tableLayout;fillColor=#fad9d5;strokeColor=#ae4132;" vertex="1" parent="iKnaXG9pOddWucdSrnOA-549">
          <mxGeometry x="60" width="20" height="20" as="geometry" />
        </mxCell>
        <mxCell id="iKnaXG9pOddWucdSrnOA-597" value="" style="shape=tableRow;horizontal=0;startSize=0;swimlaneHead=0;swimlaneBody=0;strokeColor=#ae4132;top=0;left=0;bottom=0;right=0;collapsible=0;dropTarget=0;fillColor=#fad9d5;points=[[0,0.5],[1,0.5]];portConstraint=eastwest;" vertex="1" parent="iKnaXG9pOddWucdSrnOA-596">
          <mxGeometry width="20" height="20" as="geometry" />
        </mxCell>
        <mxCell id="iKnaXG9pOddWucdSrnOA-598" value="" style="shape=partialRectangle;html=1;whiteSpace=wrap;connectable=0;strokeColor=#ae4132;overflow=hidden;fillColor=#fad9d5;top=0;left=0;bottom=0;right=0;pointerEvents=1;" vertex="1" parent="iKnaXG9pOddWucdSrnOA-597">
          <mxGeometry width="20" height="20" as="geometry">
            <mxRectangle width="20" height="20" as="alternateBounds" />
          </mxGeometry>
        </mxCell>
        <mxCell id="iKnaXG9pOddWucdSrnOA-599" value="" style="shape=table;startSize=0;container=1;collapsible=0;childLayout=tableLayout;fillColor=#fad9d5;strokeColor=#ae4132;" vertex="1" parent="iKnaXG9pOddWucdSrnOA-549">
          <mxGeometry x="40" y="20" width="20" height="20" as="geometry" />
        </mxCell>
        <mxCell id="iKnaXG9pOddWucdSrnOA-600" value="" style="shape=tableRow;horizontal=0;startSize=0;swimlaneHead=0;swimlaneBody=0;strokeColor=#ae4132;top=0;left=0;bottom=0;right=0;collapsible=0;dropTarget=0;fillColor=#fad9d5;points=[[0,0.5],[1,0.5]];portConstraint=eastwest;" vertex="1" parent="iKnaXG9pOddWucdSrnOA-599">
          <mxGeometry width="20" height="20" as="geometry" />
        </mxCell>
        <mxCell id="iKnaXG9pOddWucdSrnOA-601" value="" style="shape=partialRectangle;html=1;whiteSpace=wrap;connectable=0;strokeColor=#ae4132;overflow=hidden;fillColor=#fad9d5;top=0;left=0;bottom=0;right=0;pointerEvents=1;" vertex="1" parent="iKnaXG9pOddWucdSrnOA-600">
          <mxGeometry width="20" height="20" as="geometry">
            <mxRectangle width="20" height="20" as="alternateBounds" />
          </mxGeometry>
        </mxCell>
        <mxCell id="iKnaXG9pOddWucdSrnOA-602" value="" style="shape=partialRectangle;html=1;whiteSpace=wrap;connectable=0;strokeColor=#ae4132;overflow=hidden;fillColor=#fad9d5;top=0;left=0;bottom=0;right=0;pointerEvents=1;" vertex="1" parent="iKnaXG9pOddWucdSrnOA-549">
          <mxGeometry x="60" y="20" width="20" height="20" as="geometry">
            <mxRectangle width="40" height="40" as="alternateBounds" />
          </mxGeometry>
        </mxCell>
        <mxCell id="iKnaXG9pOddWucdSrnOA-603" value="" style="shape=table;startSize=0;container=1;collapsible=0;childLayout=tableLayout;fillColor=#fad9d5;strokeColor=#ae4132;" vertex="1" parent="iKnaXG9pOddWucdSrnOA-549">
          <mxGeometry x="60" y="20" width="20" height="20" as="geometry" />
        </mxCell>
        <mxCell id="iKnaXG9pOddWucdSrnOA-604" value="" style="shape=tableRow;horizontal=0;startSize=0;swimlaneHead=0;swimlaneBody=0;strokeColor=#ae4132;top=0;left=0;bottom=0;right=0;collapsible=0;dropTarget=0;fillColor=#fad9d5;points=[[0,0.5],[1,0.5]];portConstraint=eastwest;" vertex="1" parent="iKnaXG9pOddWucdSrnOA-603">
          <mxGeometry width="20" height="20" as="geometry" />
        </mxCell>
        <mxCell id="iKnaXG9pOddWucdSrnOA-605" value="" style="shape=partialRectangle;html=1;whiteSpace=wrap;connectable=0;strokeColor=#ae4132;overflow=hidden;fillColor=#fad9d5;top=0;left=0;bottom=0;right=0;pointerEvents=1;" vertex="1" parent="iKnaXG9pOddWucdSrnOA-604">
          <mxGeometry width="20" height="20" as="geometry">
            <mxRectangle width="20" height="20" as="alternateBounds" />
          </mxGeometry>
        </mxCell>
        <mxCell id="iKnaXG9pOddWucdSrnOA-608" style="edgeStyle=orthogonalEdgeStyle;rounded=0;orthogonalLoop=1;jettySize=auto;html=1;entryX=0.025;entryY=1.1;entryDx=0;entryDy=0;entryPerimeter=0;" edge="1" parent="1" source="iKnaXG9pOddWucdSrnOA-547" target="iKnaXG9pOddWucdSrnOA-572">
          <mxGeometry relative="1" as="geometry" />
        </mxCell>
      </root>
    </mxGraphModel>
  </diagram>
</mxfile>
